<?xml version="1.0" standalone="no"?>
<!DOCTYPE svg PUBLIC "-//W3C//DTD SVG 1.1//EN" "http://www.w3.org/Graphics/SVG/1.1/DTD/svg11.dtd" >
<svg xmlns="http://www.w3.org/2000/svg" xmlns:xlink="http://www.w3.org/1999/xlink" version="1.1">
<metadata>
Created by FontForge 20230101 at Mon Apr 25 12:19:22 2016
 By Unknown
Copyright (c) 2012 by Mark Caneso. All rights reserved.
</metadata>
<defs>
<font id="QuatroSlabW03-Bold" horiz-adv-x="588" >
  <font-face 
    font-family="QuatroSlabW03-Bold"
    font-weight="700"
    font-stretch="normal"
    units-per-em="1000"
    panose-1="1 0 0 0 0 0 0 0 0 0"
    ascent="800"
    descent="-200"
    x-height="548"
    cap-height="720"
    bbox="-71 -261 1085 997"
    underline-thickness="50"
    underline-position="-125"
    unicode-range="U+000D-FB04"
  />
<missing-glyph horiz-adv-x="570" 
d="M490 0h-410v670h410v-670zM421 69v532h-272v-532h272z" />
    <glyph glyph-name="uniFB00" unicode="ff" horiz-adv-x="787" 
d="M642 440v-317q0 -9 5 -14.5t21 -5.5h38v-103h-296v103h38q12 0 19 4t7 16v292q0 26 -26 26h-177v-318q0 -9 5 -14.5t21 -5.5h38v-103h-296v103h38q12 0 19 4t7 16v292q0 26 -26 26h-52v94l78 13v58q0 169 190 169q75 0 150 -28v-128h-63q-3 12 -11 24.5t-21.5 20.5
t-27.5 8q-20 0 -34.5 -15t-14.5 -40v-69h203v58q0 169 190 169q38 0 86 -7.5t82 -20.5v-128h-59q-13 26 -34 40t-42 14q-23 0 -39 -15.5t-16 -40.5v-69h132v-108h-132z" />
    <glyph glyph-name="uniFB01" unicode="fi" horiz-adv-x="725" 
d="M271 440v-317q0 -9 5 -14.5t21 -5.5h38v-103h-296v103h38q12 0 19 4t7 16v292q0 26 -26 26h-52v94l78 13v58q0 169 190 169q53 0 144 -13v-127h-76q-4 14 -17 26t-34 12q-39 0 -39 -61v-64h366v-406q0 -40 31 -40h33v-104q-45 -8 -91 -8q-77 0 -109 29.5t-32 94.5v301
q0 11 -4.5 18t-21.5 7h-172zM464 635v128h175v-128h-175z" />
    <glyph glyph-name="uniFB02" unicode="fl" horiz-adv-x="734" 
d="M271 440v-317q0 -9 5 -14.5t21 -5.5h38v-103h-296v103h38q12 0 19 4t7 16v292q0 26 -26 26h-52v94l78 13v58q0 169 190 169q75 0 150 -28v-128h-63q-3 12 -11 24.5t-21.5 20.5t-27.5 8q-20 0 -34.5 -15t-14.5 -40v-69h132v-108h-132zM479 763h168v-639q0 -21 23 -21h42
v-103h-297v103h39q25 0 25 20v640z" />
    <glyph glyph-name="uniFB03" unicode="ffi" horiz-adv-x="1096" 
d="M642 440v-317q0 -9 5 -14.5t21 -5.5h38v-103h-296v103h38q12 0 19 4t7 16v292q0 26 -26 26h-177v-318q0 -9 5 -14.5t21 -5.5h38v-103h-296v103h38q12 0 19 4t7 16v292q0 26 -26 26h-52v94l78 13v58q0 169 190 169q75 0 150 -28v-128h-63q-3 12 -11 24.5t-21.5 20.5
t-27.5 8q-20 0 -34.5 -15t-14.5 -40v-69h203v58q0 169 190 169q53 0 144 -13v-127h-76q-4 14 -17 26t-34 12q-39 0 -39 -61v-64h366v-406q0 -40 31 -40h33v-104q-45 -8 -91 -8q-77 0 -109 29.5t-32 94.5v301q0 11 -4.5 18t-21.5 7h-172zM835 635v128h175v-128h-175z" />
    <glyph glyph-name="uniFB04" unicode="ffl" horiz-adv-x="1105" 
d="M642 440v-317q0 -9 5 -14.5t21 -5.5h38v-103h-296v103h38q12 0 19 4t7 16v292q0 26 -26 26h-177v-318q0 -9 5 -14.5t21 -5.5h38v-103h-296v103h38q12 0 19 4t7 16v292q0 26 -26 26h-52v94l78 13v58q0 169 190 169q75 0 150 -28v-128h-63q-3 12 -11 24.5t-21.5 20.5
t-27.5 8q-20 0 -34.5 -15t-14.5 -40v-69h203v58q0 169 190 169q38 0 86 -7.5t82 -20.5v-128h-59q-13 26 -34 40t-42 14q-23 0 -39 -15.5t-16 -40.5v-69h132v-108h-132zM850 763h168v-639q0 -21 23 -21h42v-103h-297v103h39q25 0 25 20v640z" />
    <glyph glyph-name="f_j.liga" unicode="fj" horiz-adv-x="701" 
d="M271 440v-317q0 -9 5 -14.5t21 -5.5h38v-103h-296v103h38q12 0 19 4t7 16v292q0 26 -26 26h-52v94l78 13v58q0 169 190 169q53 0 144 -13v-127h-76q-4 14 -17 26t-34 12q-39 0 -39 -61v-64h366v-487q0 -116 -43.5 -186.5t-136.5 -104.5l-68 70v5q36 26 58 65.5t22 117.5
v387q0 11 -4.5 18t-21.5 7h-172zM464 635v128h175v-128h-175z" />
    <glyph glyph-name="f_t.liga" unicode="ft" horiz-adv-x="799" 
d="M271 440v-317q0 -9 5 -14.5t21 -5.5h38v-103h-296v103h38q12 0 19 4t7 16v292q0 26 -26 26h-52v94l78 13v58q0 169 190 169q38 0 86 -7.5t82 -20.5v-128h-59q-13 26 -34 40t-42 14q-23 0 -39 -15.5t-16 -40.5v-69h89q86 0 124.5 27.5t45.5 99.5h90v-127h161v-108h-161
v-255q0 -32 17 -50t55 -18q30 0 73 12v-123q-30 -8 -71 -13t-73 -5q-54 0 -90.5 17.5t-57.5 59t-21 112.5v263h-181z" />
    <glyph glyph-name=".notdef" horiz-adv-x="570" 
d="M490 0h-410v670h410v-670zM421 69v532h-272v-532h272z" />
    <glyph glyph-name="glyph1" horiz-adv-x="0" 
 />
    <glyph glyph-name="uni000D" unicode="&#xd;" horiz-adv-x="230" 
 />
    <glyph glyph-name="space" unicode=" " horiz-adv-x="225" 
 />
    <glyph glyph-name="exclam" unicode="!" horiz-adv-x="340" 
d="M255 720v-325l-30 -172h-111l-29 172v325h170zM74 0v141h192v-141h-192z" />
    <glyph glyph-name="quotedbl" unicode="&#x22;" horiz-adv-x="420" 
d="M61 407v263h115v-263h-115zM245 407v263h114v-263h-114z" />
    <glyph glyph-name="numbersign" unicode="#" horiz-adv-x="778" 
d="M112 0l37 168h-120l29 122h114l27 128h-114l27 123h108l37 179h153l-37 -179h109l38 179h155l-37 -179h110l-26 -123h-106l-26 -128h107l-25 -122h-106l-34 -168h-156l35 168h-110l-35 -168h-154zM461 418h-111l-27 -128h111z" />
    <glyph glyph-name="dollar" unicode="$" horiz-adv-x="544" 
d="M250 159q43 0 67.5 17.5t24.5 54.5q0 8 -2.5 18t-11 19.5t-26 18.5t-91.5 26.5t-104 39t-42.5 44t-16.5 44.5t-4 43q0 73 41 115t111 57v75h147v-66q68 -4 141 -23v-158h-87q-10 33 -38 54t-69 21q-84 0 -84 -61q0 -19 12 -31.5t32 -20t81.5 -21t87.5 -27t40.5 -26
t24.5 -27.5t16.5 -37.5t6.5 -52.5q0 -54 -19 -93t-55 -65t-90 -37v-65h-147v59q-36 3 -77 11t-70 18v158h89q6 -33 37.5 -57.5t74.5 -24.5z" />
    <glyph glyph-name="percent" unicode="%" horiz-adv-x="763" 
d="M730 660l-644 -665l-57 57l645 669zM172 574q0 -42 14.5 -65.5t43.5 -23.5q28 0 43 23.5t15 65.5t-15 65.5t-43 23.5q-29 0 -43.5 -23.5t-14.5 -65.5zM69 574q0 24 7.5 50.5t26 50.5t50.5 40.5t77 16.5q35 0 65.5 -12t52.5 -34t33.5 -51t11.5 -61q0 -70 -45 -113.5
t-118 -43.5t-117 43t-44 114zM482 145q0 -42 15 -65.5t43 -23.5q29 0 43.5 23.5t14.5 65.5t-14.5 65.5t-43.5 23.5q-28 0 -43 -23.5t-15 -65.5zM379 145q0 24 7.5 50.5t26 50.5t50.5 40.5t77 16.5t80.5 -18.5t59 -54.5t23.5 -85q0 -70 -44.5 -113.5t-118.5 -43.5
q-73 0 -117 43t-44 114z" />
    <glyph glyph-name="ampersand" unicode="&#x26;" horiz-adv-x="755" 
d="M416 310h-81q-32 0 -59.5 -11.5t-41 -37t-13.5 -50.5q0 -22 10 -43.5t35.5 -34.5t57.5 -13q39 0 78.5 18.5t68.5 50.5zM676 110h70v-110h-186l-40 81q-42 -42 -110 -67t-136 -25q-44 0 -85.5 13.5t-74 39.5t-51 64.5t-18.5 85.5q0 133 133 187q-93 56 -93 161q0 33 14 67
t51 65t88.5 45.5t99.5 14.5q65 0 118 -7.5t109 -22.5v-167h-92q-10 25 -32 41.5t-46.5 21.5t-43.5 5q-40 0 -63.5 -23t-23.5 -58q0 -30 20 -51.5t47 -29t49 -7.5h307v-124h-105z" />
    <glyph glyph-name="quotesingle" unicode="'" horiz-adv-x="236" 
d="M61 407v263h114v-263h-114z" />
    <glyph glyph-name="parenleft" unicode="(" horiz-adv-x="343" 
d="M184 279q0 -124 43 -248.5t114 -235.5h-158q-79 115 -114 232.5t-35 251.5q0 78 14.5 164.5t50.5 168.5t84 151h158q-71 -111 -114 -235.5t-43 -248.5z" />
    <glyph glyph-name="parenright" unicode=")" horiz-adv-x="343" 
d="M159 279q0 124 -43 248.5t-114 235.5h158q79 -115 114 -232.5t35 -251.5q0 -78 -14.5 -164.5t-50.5 -168.5t-84 -151h-158q71 111 114 235.5t43 248.5z" />
    <glyph glyph-name="asterisk" unicode="*" horiz-adv-x="456" 
d="M298 361l-70 98l-68 -100l-84 62l77 99l-122 37l30 91l119 -40l-5 126h104l-5 -127l121 42l29 -90l-123 -38l79 -102z" />
    <glyph glyph-name="plus" unicode="+" horiz-adv-x="535" 
d="M503 220h-167v-173h-132v173h-172v122h172v173h132v-173h167v-122z" />
    <glyph glyph-name="comma" unicode="," horiz-adv-x="282" 
d="M56 0v153h170v-175q0 -46 -28.5 -77.5t-88.5 -31.5h-53v87h28q20 0 30 6.5t10 22.5v15h-68z" />
    <glyph glyph-name="hyphen" unicode="-" horiz-adv-x="454" 
d="M56 210v128h342v-128h-342z" />
    <glyph glyph-name="period" unicode="." horiz-adv-x="281" 
d="M56 0v154h169v-154h-169z" />
    <glyph glyph-name="slash" unicode="/" horiz-adv-x="459" 
d="M23 -250l267 1000h147l-267 -1000h-147z" />
    <glyph glyph-name="zero" unicode="0" horiz-adv-x="703" 
d="M352 607q-132 0 -132 -247q0 -248 132 -248t132 247q0 248 -132 248zM352 -12q-83 0 -143.5 28t-97 78t-53 117.5t-16.5 148.5t16.5 148.5t53 117.5t97 78t143.5 28q62 0 120 -19t100 -64t65.5 -116t23.5 -174q0 -81 -16.5 -148.5t-53 -117t-96.5 -77.5t-143 -28z" />
    <glyph glyph-name="one" unicode="1" horiz-adv-x="493" 
d="M179 528h-124v106l45 -1q109 0 129 87h120v-601q1 -13 18 -14h114v-105h-439v105h113q24 0 24 17v406z" />
    <glyph glyph-name="two" unicode="2" horiz-adv-x="605" 
d="M214 120h216l40 86h84v-206h-513v68q0 39 9.5 78t33 76t61 67.5t98 67.5t86.5 57.5t40 45t14 53.5q0 25 -11.5 47t-35.5 37.5t-61 15.5q-30 0 -56 -9.5t-42.5 -32t-21.5 -53.5h-98v180q48 15 107.5 24.5t110.5 9.5q60 0 110.5 -11.5t89 -36.5t60 -68t21.5 -103
q0 -30 -8.5 -57.5t-24.5 -53t-50.5 -56.5t-107 -75t-98.5 -64.5t-39.5 -41.5t-13.5 -45z" />
    <glyph glyph-name="three" unicode="3" horiz-adv-x="604" 
d="M388 216q0 40 -28 67t-81 27h-87v103h84q33 0 59.5 17.5t36.5 43t10 46.5t-11.5 43t-35 36t-62.5 14q-50 0 -80.5 -23.5t-37.5 -61.5h-97v167q38 12 106 24.5t126 12.5q55 0 103.5 -14t83.5 -39.5t54.5 -62.5t19.5 -81q0 -47 -28 -90.5t-75 -73.5q24 -9 51 -29.5
t44.5 -55t17.5 -73.5q0 -40 -14 -80t-53 -75.5t-98 -52t-120 -16.5q-52 0 -117.5 10t-112.5 27v165h97q8 -27 27 -47t47 -28t55 -8q25 0 52.5 10.5t45.5 37.5t18 60z" />
    <glyph glyph-name="four" unicode="4" horiz-adv-x="651" 
d="M244 720h183l-226 -400h131v26l85 156h85v-182h124v-115h-124v-86q0 -14 18 -14h81v-105h-368v105h75q24 0 24 17v83h-311v120z" />
    <glyph glyph-name="five" unicode="5" horiz-adv-x="602" 
d="M279 -12q-51 0 -113 11.5t-107 27.5v166h98q5 -19 19 -40t42 -33.5t62 -12.5q33 0 59 15t40 42.5t14 69.5q0 58 -30 87.5t-74 29.5q-27 0 -55.5 -12.5t-50.5 -34.5h-120v416h472v-133h-335v-159q30 19 67.5 29t71.5 10q66 0 117.5 -28t80.5 -77.5t29 -119.5
q0 -48 -14.5 -94.5t-49 -82t-90 -56.5t-133.5 -21z" />
    <glyph glyph-name="six" unicode="6" horiz-adv-x="646" 
d="M570 545h-96q-6 20 -21.5 36t-39.5 23t-47 7q-30 0 -58 -13.5t-48.5 -44t-32 -73.5t-11.5 -93q35 21 80.5 32.5t90.5 11.5q69 0 120.5 -25t79.5 -69.5t28 -108.5q0 -51 -18.5 -95.5t-54.5 -77t-88.5 -50t-118.5 -17.5q-94 0 -158.5 40t-100 121t-35.5 211q0 82 25 151.5
t70.5 118.5t109 75.5t136.5 26.5q99 0 188 -34v-153zM442 217q0 46 -32 70t-79 24q-24 0 -54.5 -8t-50.5 -20q2 -34 12.5 -75.5t37.5 -70.5t68 -29q29 0 53 14.5t34.5 40t10.5 54.5z" />
    <glyph glyph-name="seven" unicode="7" horiz-adv-x="542" 
d="M369 600h-201l-55 -82h-85v202h502v-138q-75 -97 -125.5 -194.5t-80 -190.5t-46.5 -197h-159l-17 63q25 94 69 198t95.5 190.5t102.5 148.5z" />
    <glyph glyph-name="eight" unicode="8" horiz-adv-x="633" 
d="M321 -12q-67 0 -120 15.5t-88.5 42.5t-53 61t-17.5 71q0 54 36 102.5t96 72.5q-121 68 -121 181q0 36 16 71.5t48.5 64t82.5 45.5t113 17q52 0 100.5 -11.5t83 -37t53.5 -61t19 -77.5q0 -24 -11 -54.5t-39 -59t-65 -47.5q79 -36 110 -80.5t31 -97.5q0 -41 -16 -80
t-49.5 -70t-86.5 -49.5t-122 -18.5zM262 305q-29 -23 -45 -52.5t-16 -56.5t16.5 -50t43.5 -32.5t53 -9.5q35 0 61.5 13.5t36.5 33.5t10 37q0 14 -6.5 28t-21.5 26t-35 22t-54.5 24t-42.5 17zM358 422q23 20 37 48.5t14 56.5q0 22 -9.5 43.5t-31.5 33.5t-51 12
q-42 0 -67 -20.5t-25 -61.5q0 -34 27.5 -59t105.5 -53z" />
    <glyph glyph-name="nine" unicode="9" horiz-adv-x="646" 
d="M76 175h96q6 -20 21.5 -36t39.5 -23t47 -7q30 0 58 13.5t48.5 44t32 73.5t11.5 93q-35 -21 -80.5 -32.5t-90.5 -11.5q-69 0 -120.5 25t-79.5 69.5t-28 108.5q0 51 18.5 95.5t54.5 77t88.5 50t118.5 17.5q94 0 158.5 -40t100 -121t35.5 -211q0 -82 -25 -151.5
t-70.5 -118.5t-109 -75.5t-136.5 -26.5q-99 0 -188 34v153zM204 503q0 -46 32 -70t79 -24q24 0 54.5 8t50.5 20q-2 34 -12.5 75.5t-37.5 70.5t-68 29q-29 0 -53 -14.5t-34.5 -40t-10.5 -54.5z" />
    <glyph glyph-name="colon" unicode=":" horiz-adv-x="281" 
d="M56 0v154h169v-154h-169zM56 314v154h169v-154h-169z" />
    <glyph glyph-name="semicolon" unicode=";" horiz-adv-x="284" 
d="M57 314v154h169v-154h-169zM57 0v153h170v-175q0 -46 -28.5 -77.5t-88.5 -31.5h-53v87h28q20 0 30 6.5t10 22.5v15h-68z" />
    <glyph glyph-name="less" unicode="&#x3c;" horiz-adv-x="532" 
d="M178 281v-16l298 -93v-146l-440 162v170l440 162v-146z" />
    <glyph glyph-name="equal" unicode="=" horiz-adv-x="589" 
d="M530 330h-471v124h471v-124zM530 102h-471v126h471v-126z" />
    <glyph glyph-name="greater" unicode="&#x3e;" horiz-adv-x="532" 
d="M354 265v16l-298 93v146l440 -162v-170l-440 -162v146z" />
    <glyph glyph-name="question" unicode="?" horiz-adv-x="525" 
d="M322 567q0 37 -21.5 57t-60.5 20q-36 0 -65.5 -19t-39.5 -59h-101v165q49 20 106.5 31.5t110.5 11.5q50 0 94.5 -11t78 -34t52.5 -60t19 -85q0 -44 -17 -84.5t-69.5 -93t-63 -69t-17 -33t-6.5 -37.5q0 -24 4 -45h-166q-3 21 -3 40q0 41 16.5 81t63 90t58.5 65t19.5 33.5
t7.5 35.5zM156 0v138h185v-138h-185z" />
    <glyph glyph-name="at" unicode="@" horiz-adv-x="943" 
d="M913 339q0 -91 -31 -153.5t-85 -96.5t-122 -34q-40 0 -75 16t-58 45q-20 -15 -54.5 -27t-60.5 -12q-47 0 -81 31t-34 78q0 24 11.5 50.5t45 44t84.5 17.5h73v36q0 21 -14.5 33t-38.5 12q-30 0 -46.5 -13t-21.5 -33h-67v100q76 27 146 27q76 0 118.5 -38t42.5 -99v-123
q0 -51 58 -51q6 0 21 5t30.5 25.5t26 55t10.5 88.5q0 46 -16.5 92t-55 83t-97 60.5t-130.5 23.5q-62 0 -121 -20t-100 -54.5t-65.5 -76.5t-34 -88t-9.5 -84q0 -79 27 -137t73 -93t104 -50.5t121 -15.5q80 0 158 20l16 -96q-44 -15 -95.5 -23.5t-97.5 -8.5q-83 0 -160.5 25.5
t-137.5 76.5t-95 128t-35 174q0 106 38 187.5t104 136t148 81.5t167 27q79 0 154 -23t134 -68t93.5 -112t34.5 -149zM526 181v48h-41q-25 0 -38.5 -6.5t-13.5 -26.5q0 -12 8.5 -22.5t29.5 -10.5q30 0 55 18z" />
    <glyph glyph-name="A" unicode="A" horiz-adv-x="754" 
d="M87 144l150 466h-102l29 110h338l187 -576q5 -15 13 -24.5t24 -9.5h36v-110h-314v110h60l-40 143h-202l-44 -143h62v-110h-278v110h44q12 0 21 6.5t16 27.5zM443 350l-70 239h-10l-71 -239h151z" />
    <glyph glyph-name="B" unicode="B" horiz-adv-x="695" 
d="M43 0v110h35q28 0 28 25v450q0 25 -25 25h-38v110h353q42 0 84.5 -10.5t76.5 -34.5t55.5 -62t21.5 -86q0 -46 -19.5 -85t-57.5 -65v-5q101 -48 101 -158q0 -50 -19.5 -90.5t-56 -68t-86.5 -41.5t-110 -14h-343zM382 312h-99v-190h81q58 0 84 27.5t26 70.5q0 29 -12 51.5
t-34.5 31.5t-45.5 9zM359 598h-76v-175h92q20 0 39.5 9.5t30 31.5t10.5 49q0 37 -24.5 61t-71.5 24z" />
    <glyph glyph-name="C" unicode="C" horiz-adv-x="666" 
d="M38 359q0 93 24 164t69.5 117t111.5 69t150 23q52 0 118 -9.5t114 -23.5v-181h-102q-27 88 -136 88q-36 0 -67 -15t-53.5 -46t-35 -78t-12.5 -108q0 -121 47.5 -183t127.5 -62q39 0 64 10t40.5 28.5t24.5 48.5h102v-180q-49 -15 -113 -24t-119 -9q-84 0 -150 22.5
t-111.5 68.5t-69.5 117t-24 163z" />
    <glyph glyph-name="D" unicode="D" horiz-adv-x="765" 
d="M391 720q74 0 136 -22t107 -66.5t69 -112t24 -155.5t-24 -157t-69 -115t-107 -69t-136 -23h-348v110h35q28 0 28 25v450q0 25 -25 25h-38v110h348zM546 364q0 117 -44 173.5t-135 56.5h-84v-468h84q91 0 135 59.5t44 178.5z" />
    <glyph glyph-name="E" unicode="E" horiz-adv-x="648" 
d="M106 585q0 25 -25 25h-38v110h557v-208h-92l-38 81h-187v-167h210v-109h-210v-191h196l32 84h92v-210h-560v110h35q28 0 28 25v450z" />
    <glyph glyph-name="F" unicode="F" horiz-adv-x="627" 
d="M106 585q0 25 -25 25h-38v110h561v-208h-90l-38 81h-193v-184h223v-123h-223v-176h64v-110h-304v110h35q28 0 28 25v450z" />
    <glyph glyph-name="G" unicode="G" horiz-adv-x="729" 
d="M404 605q-61 0 -102 -28t-63 -82t-22 -138q0 -76 21 -129t63 -83.5t106 -30.5q55 0 104 17v135h-125v117h293v-342q-58 -23 -140.5 -38t-152.5 -15q-172 0 -261 96t-89 279q0 86 26.5 155.5t77 117t122 72t158.5 24.5q50 0 118 -9t120 -24v-181h-105q-27 87 -149 87z" />
    <glyph glyph-name="H" unicode="H" horiz-adv-x="841" 
d="M763 110h35v-110h-304v110h63v193h-274v-193h63v-110h-303v110h35q28 0 28 25v450q0 25 -25 25h-38v110h303v-110h-63v-180h274v180h-63v110h304v-110h-38q-25 0 -25 -25v-450q0 -25 28 -25z" />
    <glyph glyph-name="I" unicode="I" horiz-adv-x="389" 
d="M106 585q0 25 -25 25h-38v110h303v-110h-38q-23 0 -25 -22v-455q1 -11 7 -17t21 -6h35v-110h-303v110h35q28 0 28 25v450z" />
    <glyph glyph-name="J" unicode="J" horiz-adv-x="518" 
d="M430 588v-415q0 -36 -11.5 -70.5t-40 -60t-73 -40.5t-109.5 -15q-43 0 -92 8t-86 21v152h95q13 -32 33.5 -48t42.5 -16q28 0 46 19t18 56v406q0 25 -25 25h-43v110h308v-110h-38q-12 0 -18.5 -6t-6.5 -16z" />
    <glyph glyph-name="K" unicode="K" horiz-adv-x="746" 
d="M106 585q0 25 -25 25h-38v110h303v-110h-63v-200h56l141 200h-52v110h278v-110h-64l-156 -216l79 -127q33 -53 54.5 -77t48.5 -33t60 -10v-148q-36 -4 -58 -4q-77 0 -136.5 39.5t-123.5 146.5l-77 129h-50v-200h56v-110h-296v110h35q28 0 28 25v450z" />
    <glyph glyph-name="L" unicode="L" horiz-adv-x="607" 
d="M106 585q0 25 -25 25h-38v110h303v-110h-63v-484h182l33 98h95v-224h-550v110h35q28 0 28 25v450z" />
    <glyph glyph-name="M" unicode="M" horiz-adv-x="1067" 
d="M1024 110v-110h-295v110h55v424l-194 -534h-140l-196 533v-423h55v-110h-266v110h35q28 0 28 25v450q0 25 -25 25h-38v110h328l174 -486l171 486h308v-110h-38q-25 0 -25 -25v-450q0 -25 28 -25h35z" />
    <glyph glyph-name="N" unicode="N" horiz-adv-x="820" 
d="M725 585v-585h-188l-288 466v-356h63v-110h-269v110h35q28 0 28 25v450q0 25 -25 25h-38v110h254l287 -469v359h-63v110h267v-110h-38q-25 0 -25 -25z" />
    <glyph glyph-name="O" unicode="O" horiz-adv-x="762" 
d="M218 360q0 -246 163 -246q56 0 91.5 27.5t53.5 81t18 137.5q0 246 -163 246t-163 -246zM37 360q0 89 24 159.5t69 117.5t109 71t142 24t142.5 -24t109 -71t68.5 -117.5t24 -159.5t-24 -159.5t-68.5 -117.5t-109 -71t-142.5 -24t-142 24t-109 71t-69 117.5t-24 159.5z" />
    <glyph glyph-name="P" unicode="P" horiz-adv-x="678" 
d="M43 720h371q42 0 85 -12t77.5 -40.5t56.5 -74t22 -105.5q0 -106 -66.5 -171.5t-177.5 -65.5h-128v-141h70v-110h-310v110h35q28 0 28 25v450q0 25 -25 25h-38v110zM365 593h-82v-216h83q30 0 56 11t39 38t13 60q0 46 -26.5 76.5t-82.5 30.5z" />
    <glyph glyph-name="Q" unicode="Q" horiz-adv-x="764" 
d="M37 360q0 89 24 159.5t69 117.5t109.5 71t142.5 24t142.5 -24t110 -71t69.5 -117.5t24 -159.5q0 -127 -48.5 -213.5t-135.5 -123.5q34 -40 61.5 -59.5t65.5 -23.5v-71h-201q-44 49 -85 120q-78 0 -142.5 23.5t-110.5 69.5t-70.5 117t-24.5 161zM218 360q0 -246 164 -246
q165 0 165 246t-165 246q-164 0 -164 -246z" />
    <glyph glyph-name="R" unicode="R" horiz-adv-x="726" 
d="M43 0v110h35q28 0 28 25v450q0 25 -25 25h-38v110h357q67 0 117.5 -15.5t83 -44t48 -67t15.5 -83.5q0 -71 -38 -117.5t-103 -60.5q60 -19 87.5 -52t27.5 -87v-26q0 -36 17 -45.5t47 -11.5v-110q-37 -5 -81 -5q-91 0 -126 40.5t-35 121.5v40q0 24 -11 44.5t-32.5 29
t-43.5 8.5h-90v-169h53v-110h-293zM283 593v-205h98q52 0 76.5 28.5t24.5 81.5q0 45 -25 70t-76 25h-98z" />
    <glyph glyph-name="S" unicode="S" horiz-adv-x="629" 
d="M300 109q23 0 50.5 9t46.5 32.5t19 51.5q0 32 -25.5 54t-110.5 45t-115.5 37t-50 28t-35 32.5t-26.5 48t-11 70.5q0 42 16 82t53 69.5t93.5 46.5t130.5 17q49 0 114 -10t116 -27v-180h-105q-1 20 -15 43.5t-47.5 40t-70.5 16.5q-49 0 -77.5 -20.5t-28.5 -55.5
q0 -22 15.5 -38t42 -26.5t105 -32t122 -48t67 -66.5t23.5 -97q0 -47 -16 -92t-53 -78.5t-93.5 -53t-131.5 -19.5q-51 0 -124 11t-128 30v186h107q5 -49 42.5 -77.5t100.5 -28.5z" />
    <glyph glyph-name="T" unicode="T" horiz-adv-x="693" 
d="M435 133q1 -11 7 -17t21 -6h35v-110h-303v110h35q28 0 28 25v458h-121l-21 -116h-98v243h657v-243h-98l-21 116h-121v-460z" />
    <glyph glyph-name="U" unicode="U" horiz-adv-x="752" 
d="M668 587v-329q0 -140 -73 -205t-216 -65q-147 0 -221 65.5t-74 204.5v329q0 23 -24 23h-34v110h297v-110h-62v-366q0 -130 131 -130q23 0 53.5 8t53.5 37.5t23 83.5v367h-58v110h262v-110h-34q-24 0 -24 -23z" />
    <glyph glyph-name="V" unicode="V" horiz-adv-x="755" 
d="M403 131l139 479h-67v110h286v-110h-47q-12 0 -21 -6.5t-16 -27.5l-184 -576h-231l-187 576q-5 15 -13 24.5t-24 9.5h-39v110h321v-110h-65l136 -479h12z" />
    <glyph glyph-name="W" unicode="W" horiz-adv-x="1085" 
d="M1005 576l-142 -578h-229l-96 496l-100 -496h-216l-143 578q-9 34 -37 34h-39v110h309v-110h-63l97 -427h4l105 537h202l105 -537h4l102 427h-78v110h295v-110h-43q-28 0 -37 -34z" />
    <glyph glyph-name="X" unicode="X" horiz-adv-x="794" 
d="M306 110v-110h-294v110h73l192 260l-196 240h-54v110h335v-110h-58l129 -166l105 147l3 8q0 4 -4.5 7.5t-11.5 3.5h-45v110h288v-110h-68l-184 -247l198 -253h69v-110h-345v110h55l-135 173l-112 -152q-4 -5 -4 -11q0 -10 16 -10h48z" />
    <glyph glyph-name="Y" unicode="Y" horiz-adv-x="709" 
d="M268 274l-194 304q-20 32 -49 32h-32v110h313v-110h-57l130 -213l121 213h-64v110h279v-110h-34q-17 0 -31 -6.5t-27 -27.5l-177 -303v-140q0 -23 28 -23h35v-110h-304v110h35q28 0 28 25v139z" />
    <glyph glyph-name="Z" unicode="Z" horiz-adv-x="662" 
d="M609 720v-135l-353 -459h198q18 0 35 11t26.5 35t11.5 50h99v-222h-584v134l356 460h-176q-36 0 -55 -26.5t-22 -71.5h-101v224h565z" />
    <glyph glyph-name="bracketleft" unicode="[" horiz-adv-x="356" 
d="M79 763h247v-124h-99v-719h99v-125h-247v968z" />
    <glyph glyph-name="backslash" unicode="\" horiz-adv-x="454" 
d="M287 -250l-265 1000h145l265 -1000h-145z" />
    <glyph glyph-name="bracketright" unicode="]" horiz-adv-x="356" 
d="M277 -205h-247v124h99v719h-99v125h247v-968z" />
    <glyph glyph-name="asciicircum" unicode="^" horiz-adv-x="628" 
d="M235 353h-152l151 317h158l159 -317h-150l-85 196q-17 -37 -45.5 -108t-35.5 -88z" />
    <glyph glyph-name="underscore" unicode="_" 
d="M56 -7v106h476v-106h-476z" />
    <glyph glyph-name="grave" unicode="`" horiz-adv-x="500" 
d="M222 615l-120 174h159l96 -151v-23h-135z" />
    <glyph glyph-name="a" unicode="a" 
d="M235 320h112v64q0 32 -22.5 50.5t-58.5 18.5q-41 0 -69 -17.5t-37 -53.5h-96v151q42 10 102.5 19t116.5 9q116 0 173.5 -54.5t57.5 -149.5v-218q0 -18 9 -27t31 -9h24v-101q-77 -10 -99 -10q-41 0 -72.5 15t-46.5 45q-35 -26 -81.5 -43t-84.5 -17q-44 0 -84.5 18.5
t-62.5 58t-22 89.5q0 72 53.5 117t156.5 45zM347 138v96h-72q-36 0 -58.5 -16t-22.5 -49q0 -28 16.5 -42.5t39.5 -16.5q63 0 97 28z" />
    <glyph glyph-name="b" unicode="b" horiz-adv-x="635" 
d="M303 -12q-53 0 -119 8.5t-121 23.5v614q0 26 -28 26h-36v103h232v-249q91 47 162 47q65 0 111.5 -32.5t72 -92t25.5 -147.5q0 -59 -13 -107.5t-37 -83.5t-57.5 -58t-80.5 -37.5t-111 -14.5zM431 276q0 83 -22 119.5t-68 36.5q-25 0 -55.5 -12t-54.5 -30v-265
q39 -11 69 -11q66 0 98.5 38t32.5 124z" />
    <glyph glyph-name="c" unicode="c" horiz-adv-x="552" 
d="M204 274q0 -74 30.5 -116.5t92.5 -42.5q25 0 46.5 13.5t38.5 55.5h98v-166q-41 -15 -92.5 -22.5t-95.5 -7.5q-55 0 -106 14t-92.5 46.5t-66.5 89.5t-25 136t25 136t66.5 90t92.5 47t106 14q44 0 96 -8t92 -23v-157h-99q-27 61 -86 61q-61 0 -91 -41.5t-30 -118.5z" />
    <glyph glyph-name="d" unicode="d" horiz-adv-x="657" 
d="M403 547v88q0 11 -4.5 18t-21.5 7h-39v103h233v-624q0 -36 37 -36h27v-103q-73 -8 -81.5 -8.5t-17.5 -0.5q-42 0 -71 11t-44 40q-89 -54 -180 -54q-40 0 -76.5 13.5t-66 45t-47 86.5t-17.5 133q0 98 30 162t88 98.5t147 34.5q38 0 104 -14zM299 111q45 0 104 40v276
q-38 12 -73 12q-72 0 -98 -39t-26 -132q0 -157 93 -157z" />
    <glyph glyph-name="e" unicode="e" horiz-adv-x="587" 
d="M316 -12q-67 0 -120 17.5t-89.5 52.5t-55.5 89.5t-19 126.5q0 70 19.5 124.5t56 90.5t87.5 54t112 18q118 0 181 -64t63 -197v-60h-341q1 -68 31 -99t95 -31q25 0 52 8t46 25t28 36h79v-143q-47 -22 -112 -35t-113 -13zM208 336h187q0 113 -92 113q-46 0 -70.5 -32.5
t-24.5 -80.5z" />
    <glyph glyph-name="f" unicode="f" horiz-adv-x="416" 
d="M271 440v-317q0 -9 5 -14.5t21 -5.5h38v-103h-296v103h38q12 0 19 4t7 16v292q0 26 -26 26h-52v94l78 13v58q0 169 190 169q38 0 86 -7.5t82 -20.5v-128h-59q-13 26 -34 40t-42 14q-23 0 -39 -15.5t-16 -40.5v-69h132v-108h-132z" />
    <glyph glyph-name="g" unicode="g" horiz-adv-x="600" 
d="M132 21q-14 6 -26.5 18t-19 29.5t-6.5 37.5q0 24 13.5 49t38.5 44q-45 20 -72 63.5t-27 94.5q0 96 65 150t183 54q27 0 71.5 -6t57.5 -6q30 0 39.5 9.5t9.5 26.5v7h128q0 -40 -9.5 -66t-29.5 -42.5t-55 -27.5q19 -17 28.5 -43.5t9.5 -56.5q0 -43 -16.5 -77.5t-47 -58
t-71.5 -35.5t-88 -12q-35 0 -65 5q-14 -19 -14 -35q0 -31 46 -31h139q12 0 43.5 -3.5t58.5 -18t45 -41.5t18 -72q0 -62 -33 -104t-101.5 -66t-181.5 -24q-238 0 -238 124q0 98 107 114zM413 -51q0 18 -15 31.5t-49 13.5h-99q-28 0 -43 -13.5t-15 -35.5q0 -31 24 -47t77 -16
q120 0 120 67zM283 272q43 0 61 22.5t18 66.5q0 31 -9.5 52.5t-29 29.5t-40.5 8q-44 0 -62.5 -23.5t-18.5 -66.5t18.5 -66t62.5 -23z" />
    <glyph glyph-name="h" unicode="h" horiz-adv-x="674" 
d="M595 127q0 -15 6.5 -19.5t18.5 -4.5h39v-103h-289v103h57v259q0 36 -16.5 52t-51.5 16q-23 0 -54 -11.5t-52 -25.5v-290h56v-103h-288v103h38q25 0 26 21v511q0 11 -4.5 18t-21.5 7h-39v103h233v-261q38 26 87 42.5t93 16.5q33 0 62.5 -9t52 -28.5t35 -52t12.5 -76.5
v-268z" />
    <glyph glyph-name="i" unicode="i" horiz-adv-x="337" 
d="M251 142q0 -40 31 -40h33v-104q-45 -8 -91 -8q-77 0 -109 29.5t-32 94.5v306q0 11 -4.5 18t-21.5 7h-38v103h232v-406zM80 634v129h173v-129h-173z" />
    <glyph glyph-name="j" unicode="j" horiz-adv-x="319" 
d="M85 28v395q0 22 -22 22h-42v103h232v-487q0 -116 -43.5 -186.5t-136.5 -104.5l-68 70v5q36 26 58 65.5t22 117.5zM83 634v129h173v-129h-173z" />
    <glyph glyph-name="k" unicode="k" horiz-adv-x="638" 
d="M296 319l95 136l-65 17v76h266v-103h-56l-114 -154l47 -71q33 -51 65.5 -73.5t83.5 -23.5v-125q-30 -6 -60 -6q-59 0 -114 34t-97 103l-68 115h-26v-141h51v-103h-283v103h39q12 0 18.5 4t6.5 17v511q0 11 -4.5 18t-20.5 7h-39v103h232v-444h43z" />
    <glyph glyph-name="l" unicode="l" horiz-adv-x="342" 
d="M87 635q0 11 -4.5 18t-20.5 7h-39v103h232v-639q0 -21 23 -21h42v-103h-297v103h39q25 0 25 20v512z" />
    <glyph glyph-name="m" unicode="m" horiz-adv-x="1003" 
d="M924 395v-271q0 -9 4.5 -15t20.5 -6h39v-103h-267v103h35v260q0 67 -58 67q-50 0 -103 -34v-293h56v-103h-259v103h35v261q0 66 -64 66q-41 0 -98 -36v-291h57v-103h-289v103h39q12 0 18.5 4t6.5 17v299q0 22 -25 22h-39v103h224v-48q87 61 184 61q42 0 79 -17.5
t56 -51.5q91 69 183 69q52 0 88.5 -19t56.5 -55.5t20 -91.5z" />
    <glyph glyph-name="n" unicode="n" horiz-adv-x="687" 
d="M608 396v-269q0 -15 6.5 -19.5t18.5 -4.5h39v-103h-289v103h57v261q0 69 -68 69q-23 0 -54 -12.5t-53 -26.5v-291h57v-103h-289v103h39q12 0 18.5 4.5t6.5 19.5v293q0 11 -4.5 18t-20.5 7h-39v103h224v-49q42 29 91.5 45.5t98.5 16.5q51 0 87 -19.5t55 -55.5t19 -90z" />
    <glyph glyph-name="o" unicode="o" horiz-adv-x="630" 
d="M204 274q0 -82 25.5 -124t85.5 -42t86 42t26 124t-26 124t-86 42t-85.5 -42t-25.5 -124zM32 274q0 72 20.5 127t58.5 90t90 52.5t114 17.5q61 0 113.5 -17.5t90 -53t58.5 -90.5t21 -126t-21 -126t-58.5 -90t-89.5 -52.5t-114 -17.5t-114 17t-90 52t-58.5 90t-20.5 127z
" />
    <glyph glyph-name="p" unicode="p" horiz-adv-x="657" 
d="M86 424q0 21 -25 21h-39v103h228v-48q90 60 176 60q63 0 106.5 -30t67 -89.5t23.5 -153.5q0 -80 -18 -138t-50 -93t-76.5 -51t-97.5 -16q-70 0 -127 13v-104h65v-103h-297v103h39q11 0 18 4t7 17v505zM362 436q-24 0 -53.5 -11t-53.5 -28v-276q38 -12 73 -12q36 0 63 11
t43.5 45t16.5 115q0 82 -22.5 119t-66.5 37z" />
    <glyph glyph-name="q" unicode="q" horiz-adv-x="635" 
d="M404 34q-87 -46 -161 -46q-66 0 -112.5 32.5t-72 92t-25.5 147.5q0 99 34.5 165t100.5 101t165 35q55 0 121.5 -9t117.5 -23v-605q0 -25 29 -25h36v-104h-298v103h65v136zM205 268q0 -79 23.5 -115t69.5 -36q17 0 44.5 8.5t61.5 32.5v266q-39 11 -69 11q-65 0 -97.5 -40
t-32.5 -127z" />
    <glyph glyph-name="r" unicode="r" horiz-adv-x="458" 
d="M98 127v293q0 11 -4.5 18t-21.5 7h-39v103h223v-92q57 53 104.5 76t76.5 23v-168q-104 -18 -171 -34v-250h64v-103h-296v103h39q12 0 18.5 4.5t6.5 19.5z" />
    <glyph glyph-name="s" unicode="s" horiz-adv-x="516" 
d="M280 561q37 0 89.5 -6.5t94.5 -15.5v-136h-84q-14 27 -42 40.5t-62 13.5t-50.5 -14.5t-16.5 -35.5q0 -15 11.5 -28.5t53 -23.5t45.5 -11q56 -15 89 -31t54 -49t21 -86q0 -37 -12.5 -72t-42.5 -61t-78 -41.5t-116 -15.5q-40 0 -95.5 7t-95.5 17v142h93q6 -30 34 -49
t61 -19q34 0 56.5 15.5t22.5 48.5q0 20 -18.5 35t-79.5 29q-66 15 -103 38.5t-54 58t-17 77.5q0 55 27.5 92.5t81 59t133.5 21.5z" />
    <glyph glyph-name="t" unicode="t" horiz-adv-x="425" 
d="M246 440v-252q0 -38 20.5 -54t58.5 -16q35 0 66 11v-123q-30 -8 -71 -13t-73 -5q-58 0 -96 19t-55.5 54t-17.5 82v297h-60v94q53 7 77 39.5t32 101.5h119v-127h161v-108h-161z" />
    <glyph glyph-name="u" unicode="u" horiz-adv-x="673" 
d="M431 52q-36 -25 -89 -44.5t-100 -19.5q-53 0 -89.5 19t-56 55t-19.5 92v269q0 22 -23 22h-35v103h226v-362q0 -35 14 -51.5t43 -16.5q25 0 58 10.5t59 26.5v278q-3 12 -24 12h-39v103h231v-406q0 -39 37 -39h27v-103q-43 -9 -96 -9q-58 0 -85 17t-39 44z" />
    <glyph glyph-name="v" unicode="v" horiz-adv-x="631" 
d="M224 -1l-167 435q-5 11 -19 11h-32v103h286v-103h-64l99 -292h8l95 292h-57v103h249v-103h-34q-13 0 -16 -10l-161 -436h-187z" />
    <glyph glyph-name="w" unicode="w" horiz-adv-x="964" 
d="M889 429v-236q0 -40 -13.5 -78.5t-45.5 -66.5t-80 -44t-112 -16q-61 0 -111 19t-82 56q-39 -37 -91.5 -56t-101.5 -19q-60 0 -98 25t-57.5 71.5t-19.5 116.5v222q0 22 -22 22h-42v103h232v-359q0 -38 16.5 -57t44.5 -19q22 0 52.5 12t52.5 28l-3 49v243h-64v103h224v-362
q0 -73 79 -73q12 0 32 8.5t31 26t11 39.5v258h-56v103h287v-103h-42q-20 0 -21 -16z" />
    <glyph glyph-name="x" unicode="x" horiz-adv-x="664" 
d="M294 202l-85 -110l-3 -7q0 -4 4.5 -8t11.5 -4h35v-73h-231v103h73l128 164l-139 178h-62v103h294v-73h-45l93 -131l78 112l2 7q0 5 -4 8.5t-11 3.5h-35v73h226v-103h-66l-117 -161l142 -181h64v-103h-297v73h40z" />
    <glyph glyph-name="y" unicode="y" horiz-adv-x="631" 
d="M569 429l-153 -432l-59 -202h-193v49l119 151v4h-69l-153 436q-4 10 -18 10h-36v103h290v-103h-64l95 -296h9l98 296h-61v103h247v-103h-34q-13 0 -18 -16z" />
    <glyph glyph-name="z" unicode="z" horiz-adv-x="557" 
d="M308 445h-94q-39 0 -56.5 -17t-22.5 -49h-99v169h479v-101l-264 -345h81q22 0 42.5 5.5t31.5 21t16 44.5h99v-173h-481v101z" />
    <glyph glyph-name="braceleft" unicode="{" horiz-adv-x="396" 
d="M157 289v-8q90 -6 90 -102q0 -29 -13 -97.5t-13 -99.5q0 -35 16.5 -60.5t36.5 -25.5q15 0 31.5 13.5t24.5 36.5l31 -4l7 -143q-62 -16 -114 -16q-93 0 -137 51t-44 139q0 41 16 113.5t16 95.5q0 53 -44 53h-37v99h37q44 0 44 55q0 22 -16 94.5t-16 114.5q0 87 46 138.5
t135 51.5h13q35 0 101 -16l-7 -143l-28 -4q-10 24 -27 37.5t-33 13.5q-52 0 -52 -91q0 -27 13 -94.5t13 -98.5q0 -95 -90 -103z" />
    <glyph glyph-name="bar" unicode="|" horiz-adv-x="321" 
d="M243 768v-1029h-165v1029h165z" />
    <glyph glyph-name="braceright" unicode="}" horiz-adv-x="396" 
d="M239 281v8q-90 8 -90 103q0 29 13 97.5t13 99.5q0 35 -16.5 60.5t-37.5 25.5q-14 0 -30.5 -13.5t-24.5 -36.5l-31 4l-7 143q62 16 114 16q93 0 137 -51t44 -139q0 -42 -16 -114.5t-16 -94.5q0 -24 11 -39t33 -15h37v-99h-37q-44 0 -44 -54q0 -22 16 -94.5t16 -114.5
q0 -87 -46 -138.5t-135 -51.5h-13q-35 0 -101 16l7 143l28 4q10 -24 27 -37.5t33 -13.5q52 0 52 91q0 27 -13 94.5t-13 98.5q0 96 90 102z" />
    <glyph glyph-name="asciitilde" unicode="~" horiz-adv-x="577" 
d="M511 355l10 -105q-53 -25 -108 -25q-42 0 -121.5 19t-118.5 19q-59 0 -109 -29l-7 109q63 31 131 31q45 0 124.5 -18.5t115.5 -18.5q44 0 83 18z" />
    <glyph glyph-name="uni00A0" unicode="&#xa0;" horiz-adv-x="225" 
 />
    <glyph glyph-name="exclamdown" unicode="&#xa1;" horiz-adv-x="318" 
d="M74 -172v325l30 172h111l29 -172v-325h-170zM255 548v-141h-192v141h192z" />
    <glyph glyph-name="cent" unicode="&#xa2;" horiz-adv-x="569" 
d="M210 361q0 -74 30.5 -116.5t92.5 -42.5q25 0 46.5 13.5t38.5 55.5h98v-166q-51 -19 -117 -27v-78h-139v80q-33 5 -64 17t-58 31t-51.5 52.5t-36.5 82t-12 98.5q0 67 18 118t48.5 84.5t70.5 52.5t85 26v78h139v-76q64 -8 117 -27v-157h-99q-27 61 -86 61q-61 0 -91 -41.5
t-30 -118.5z" />
    <glyph glyph-name="sterling" unicode="&#xa3;" horiz-adv-x="569" 
d="M527 0h-496l19 116q58 0 81.5 29.5t23.5 87.5v93h-100v126h101v57q0 46 15 92t52 83t99.5 62t156.5 31l20 -124q-70 -12 -104 -28t-49.5 -42.5t-15.5 -61.5v-69h165v-126h-170v-101q0 -26 -7 -51.5t-32 -46.5h241v-127z" />
    <glyph glyph-name="currency" unicode="&#xa4;" horiz-adv-x="533" 
d="M267 177q29 0 48.5 22t19.5 53t-19.5 53t-48.5 22q-31 0 -50.5 -22t-19.5 -53t19.5 -53t50.5 -22zM489 380l-79 -78q3 -9 6 -24.5t3 -25.5q0 -27 -9 -50l81 -79l-91 -91l-81 79q-24 -9 -53 -9q-30 0 -53 8l-80 -79l-91 91l79 78q-8 26 -8 52q0 28 9 52l-78 77l91 91
l80 -79q9 3 25 6t26 3t26.5 -3t26.5 -6l79 78z" />
    <glyph glyph-name="yen" unicode="&#xa5;" horiz-adv-x="779" 
d="M622 0h-471v126h153v94h-153v124h108l-149 234q-20 32 -49 32h-32v110h313v-110h-57l130 -213l121 213h-64v110h279v-110h-34q-17 0 -31 -6.5t-27 -27.5l-136 -232h99v-124h-140v-94h140v-126z" />
    <glyph glyph-name="brokenbar" unicode="&#xa6;" horiz-adv-x="325" 
d="M80 217h165v-478h-165v478zM245 297h-165v466h165v-466z" />
    <glyph glyph-name="section" unicode="&#xa7;" horiz-adv-x="547" 
d="M301 762q37 0 89.5 -6.5t94.5 -15.5v-136h-84q-14 27 -42 40.5t-62 13.5t-50.5 -14.5t-16.5 -35.5q0 -15 11.5 -28.5t53 -23.5t45.5 -11q56 -15 89 -31t54 -49t21 -86q0 -32 -14 -62t-54 -73q56 -42 56 -122q0 -37 -12.5 -72t-42.5 -61t-78 -41.5t-116 -15.5
q-40 0 -95.5 7t-95.5 17v142h93q6 -30 34 -49t61 -19q34 0 56.5 15.5t22.5 48.5q0 13 -9.5 26t-30.5 21t-58 17q-101 24 -137.5 67.5t-36.5 106.5q0 42 20.5 75.5t54.5 55.5q-63 42 -63 126q0 55 27.5 92.5t81 59t133.5 21.5zM331 351q0 18 -16 32t-67 27q-30 -24 -30 -53
q0 -22 15.5 -36t71.5 -28q11 11 18.5 26t7.5 32z" />
    <glyph glyph-name="dieresis" unicode="&#xa8;" horiz-adv-x="795" 
d="M463 629v139h157v-139h-157zM175 629v139h157v-139h-157z" />
    <glyph glyph-name="copyright" unicode="&#xa9;" horiz-adv-x="938" 
d="M36 365q0 116 53.5 206.5t154 140.5t225.5 50q113 0 212 -43.5t160 -135t61 -218.5q0 -97 -33.5 -173t-92.5 -125.5t-138 -74t-169 -24.5t-169 24.5t-138 73.5t-92.5 125t-33.5 174zM107 365q0 -82 28 -145.5t77.5 -105t115.5 -62t141 -20.5t141 20.5t115.5 62
t77.5 105.5t28 145q0 77 -28 139.5t-78 105.5t-116 65t-140 22t-140.5 -22t-116 -65t-77.5 -105.5t-28 -139.5zM256 361q0 120 58.5 179.5t168.5 59.5q33 0 75.5 -6t73.5 -15v-116h-66q-16 56 -87 56q-48 0 -77.5 -40t-29.5 -118q0 -77 30.5 -116.5t81.5 -39.5q29 0 50.5 11
t31.5 44h66v-115q-33 -10 -75.5 -15.5t-73.5 -5.5q-110 0 -168.5 59t-58.5 178z" />
    <glyph glyph-name="ordfeminine" unicode="&#xaa;" horiz-adv-x="439" 
d="M176 576h73v42q0 20 -15 32t-38 12q-30 0 -47 -12.5t-22 -33.5h-62v98q33 8 73.5 13.5t68.5 5.5q75 0 112.5 -35.5t37.5 -97.5v-142q0 -23 26 -23h16v-66q-5 0 -27.5 -3t-37.5 -3q-57 0 -77 39q-22 -16 -53 -27.5t-55 -11.5q-47 0 -78.5 28.5t-31.5 79.5q0 45 34 75
t103 30zM249 458v62h-47q-24 0 -38.5 -10.5t-14.5 -31.5q0 -18 10.5 -27.5t25.5 -11.5q41 0 64 19z" />
    <glyph glyph-name="guillemotleft" unicode="&#xab;" horiz-adv-x="605" 
d="M460 533l108 -66l-140 -197l139 -196l-106 -66l-180 262zM208 533l107 -66l-140 -197l140 -196l-107 -66l-179 262z" />
    <glyph glyph-name="logicalnot" unicode="&#xac;" horiz-adv-x="613" 
d="M550 335v-275l-124 11v144h-370v120h494z" />
    <glyph glyph-name="uni00AD" unicode="&#xad;" horiz-adv-x="454" 
d="M56 210v128h342v-128h-342z" />
    <glyph glyph-name="registered" unicode="&#xae;" horiz-adv-x="512" 
d="M86 577q0 -74 48 -115.5t122 -41.5t122 41.5t48 115.5t-48 115.5t-122 41.5t-122 -41.5t-48 -115.5zM39 577q0 34 11 69t38 63.5t69.5 47t98.5 18.5q45 0 84.5 -13t69.5 -38.5t46.5 -63t16.5 -83.5q0 -34 -11 -69t-38 -63.5t-69.5 -47t-98.5 -18.5q-45 0 -84.5 13
t-69.5 38.5t-46.5 63t-16.5 83.5zM170 485v29h9q6 0 6 6v116q0 7 -6 7h-9v28h101q33 0 50.5 -15t17.5 -39q0 -37 -36 -47q30 -8 30 -34v-8q0 -3 1 -8t14 -6v-29l-21 -1q-41 0 -41 41v11q0 8 -5.5 14.5t-16.5 6.5h-32v-43h13v-29h-75zM232 639v-53h33q26 0 26 28q0 25 -26 25
h-33z" />
    <glyph glyph-name="macron" unicode="&#xaf;" horiz-adv-x="601" 
d="M100 636v108h401v-108h-401z" />
    <glyph glyph-name="degree" unicode="&#xb0;" horiz-adv-x="338" 
d="M108 600q0 -29 17.5 -47.5t43.5 -18.5t43.5 18.5t17.5 47.5t-17.5 47.5t-43.5 18.5t-43.5 -18.5t-17.5 -47.5zM37 600q0 45 22 76.5t53 43.5t57 12t57 -12t53 -43.5t22 -76.5t-22 -76.5t-53 -43.5t-57 -12t-57 12t-53 43.5t-22 76.5z" />
    <glyph glyph-name="plusminus" unicode="&#xb1;" horiz-adv-x="579" 
d="M525 272h-167v-111h-132v111h-172v122h172v121h132v-121h167v-122zM525 0h-471v122h471v-122z" />
    <glyph glyph-name="uni00B2" unicode="&#xb2;" horiz-adv-x="433" 
d="M53 292v36q0 28 10 58.5t35 58t78.5 64t64 53.5t10.5 30q0 26 -17 39t-44 13q-25 0 -47 -14.5t-31 -40.5h-51v118q69 22 139 22q76 0 122.5 -32.5t46.5 -92.5q0 -33 -16 -61t-40 -49.5t-78 -56.5t-57 -55h125l26 45h51v-135h-327z" />
    <glyph glyph-name="uni00B3" unicode="&#xb3;" horiz-adv-x="425" 
d="M262 423q0 50 -81 50h-40v65h53q33 0 48.5 15.5t15.5 41.5q0 22 -17.5 35.5t-43.5 13.5q-25 0 -46 -9.5t-30 -40.5h-60v114q74 24 143 24q46 0 86.5 -12t62.5 -41t22 -69q0 -33 -16.5 -56t-47.5 -42q32 -12 52 -38t20 -56q0 -31 -14 -56.5t-39 -43t-59 -26t-68 -8.5
q-32 0 -77 5.5t-72 14.5v116h63q7 -28 29 -38.5t52 -10.5t47 13.5t17 38.5z" />
    <glyph glyph-name="acute" unicode="&#xb4;" horiz-adv-x="424" 
d="M352 789l-120 -174h-135v23l96 151h159z" />
    <glyph glyph-name="uni00B5" unicode="&#xb5;" horiz-adv-x="704" 
d="M455 52q-36 -25 -87.5 -44t-98.5 -20v-193h-168v628q0 22 -23 22h-35v103h226v-362q0 -35 14 -51.5t43 -16.5q25 0 58 10.5t59 26.5v278q-3 12 -24 12h-39v103h231v-406q0 -39 37 -39h27v-103q-43 -9 -96 -9q-58 0 -85 17t-39 44z" />
    <glyph glyph-name="paragraph" unicode="&#xb6;" horiz-adv-x="648" 
d="M563 670v-651q0 -78 -29.5 -124t-87 -68t-147.5 -22q-48 0 -120 18v160h44q7 -16 25.5 -29.5t51.5 -13.5q44 0 68 23t24 78v629h171zM336 670v-417h-85q-47 0 -88 14t-71 41.5t-46.5 67t-16.5 88.5t16.5 88t47 65t73 39.5t92.5 13.5h78z" />
    <glyph glyph-name="periodcentered" unicode="&#xb7;" horiz-adv-x="329" 
d="M56 170v194h217v-194h-217z" />
    <glyph glyph-name="cedilla" unicode="&#xb8;" horiz-adv-x="467" 
d="M118 -257v77l49 -3q42 0 58 14t16 47q-5 12 -21.5 19t-41.5 7l-18 -1l-13 41l44 56h100l-44 -54q110 -8 110 -95q0 -112 -185 -112q-22 0 -54 4z" />
    <glyph glyph-name="uni00B9" unicode="&#xb9;" horiz-adv-x="386" 
d="M48 292v90h99v217h-82v63q54 0 80.5 15.5t29.5 48.5h87v-344h89v-90h-303z" />
    <glyph glyph-name="ordmasculine" unicode="&#xba;" horiz-adv-x="444" 
d="M150 545q0 -53 17 -80.5t55 -27.5q73 0 73 108t-73 108q-38 0 -55 -27.5t-17 -80.5zM38 545q0 93 50 140t134 47q50 0 94 -20t67 -64.5t23 -102.5t-21 -98.5t-61.5 -64t-101.5 -23.5q-84 0 -134 46.5t-50 139.5z" />
    <glyph glyph-name="guillemotright" unicode="&#xbb;" horiz-adv-x="605" 
d="M144 8l-107 66l140 197l-139 196l106 66l180 -262zM397 8l-108 66l140 197l-139 196l106 66l180 -262z" />
    <glyph glyph-name="onequarter" unicode="&#xbc;" horiz-adv-x="1004" 
d="M703 437h128l-122 -217h77l36 80h79v-80h73v-86h-73v-48h68v-86h-256v86h73v48h-203v90zM366 -50h-124l380 825h123zM36 292v90h99v217h-82v63q54 0 80.5 15.5t29.5 48.5h87v-344h89v-90h-303z" />
    <glyph glyph-name="onehalf" unicode="&#xbd;" horiz-adv-x="987" 
d="M363 -50h-124l380 825h123zM628 0v36q0 28 10 58.5t35 58t78.5 64t64 53.5t10.5 30q0 26 -17 39t-44 13q-25 0 -47 -14.5t-31 -40.5h-51v118q69 22 139 22q76 0 122.5 -32.5t46.5 -92.5q0 -33 -16 -61t-40 -49.5t-78 -56.5t-57 -55h125l26 45h51v-135h-327zM33 292v90h99
v217h-82v63q54 0 80.5 15.5t29.5 48.5h87v-344h89v-90h-303z" />
    <glyph glyph-name="threequarters" unicode="&#xbe;" horiz-adv-x="1002" 
d="M248 423q0 50 -81 50h-40v65h53q33 0 48.5 15.5t15.5 41.5q0 22 -17.5 35.5t-43.5 13.5q-25 0 -46 -9.5t-30 -40.5h-60v114q74 24 143 24q46 0 86.5 -12t62.5 -41t22 -69q0 -33 -16.5 -56t-47.5 -42q32 -12 52 -38t20 -56q0 -31 -14 -56.5t-39 -43t-59 -26t-68 -8.5
q-32 0 -77 5.5t-72 14.5v116h63q7 -28 29 -38.5t52 -10.5t47 13.5t17 38.5zM701 437h128l-122 -217h77l36 80h79v-80h73v-86h-73v-48h68v-86h-256v86h73v48h-203v90zM364 -50h-124l380 825h123z" />
    <glyph glyph-name="questiondown" unicode="&#xbf;" horiz-adv-x="519" 
d="M200 -19q0 -37 21.5 -57t60.5 -20q36 0 65.5 19t39.5 59h101v-165q-49 -20 -106.5 -31.5t-110.5 -11.5q-50 0 -94.5 11t-78 34t-52.5 60t-19 85q0 44 17 84.5t69.5 93t63 69t17 33t6.5 37.5q0 24 -4 45h166q3 -21 3 -40q0 -41 -16.5 -81t-63 -90t-58.5 -65t-19.5 -33.5
t-7.5 -35.5zM366 548v-138h-185v138h185z" />
    <glyph glyph-name="Agrave" unicode="&#xc0;" horiz-adv-x="754" 
d="M87 144l150 466h-102l29 110h338l187 -576q5 -15 13 -24.5t24 -9.5h36v-110h-314v110h60l-40 143h-202l-44 -143h62v-110h-278v110h44q12 0 21 6.5t16 27.5zM443 350l-70 239h-10l-71 -239h151zM300 795l-120 174h159l96 -151v-23h-135z" />
    <glyph glyph-name="Aacute" unicode="&#xc1;" horiz-adv-x="754" 
d="M87 144l150 466h-102l29 110h338l187 -576q5 -15 13 -24.5t24 -9.5h36v-110h-314v110h60l-40 143h-202l-44 -143h62v-110h-278v110h44q12 0 21 6.5t16 27.5zM443 350l-70 239h-10l-71 -239h151zM549 969l-120 -174h-135v23l96 151h159z" />
    <glyph glyph-name="Acircumflex" unicode="&#xc2;" horiz-adv-x="754" 
d="M87 144l150 466h-102l29 110h338l187 -576q5 -15 13 -24.5t24 -9.5h36v-110h-314v110h60l-40 143h-202l-44 -143h62v-110h-278v110h44q12 0 21 6.5t16 27.5zM443 350l-70 239h-10l-71 -239h151zM165 795l97 174h211l97 -174h-142l-60 117l-61 -117h-142z" />
    <glyph glyph-name="Atilde" unicode="&#xc3;" horiz-adv-x="754" 
d="M87 144l150 466h-102l29 110h338l187 -576q5 -15 13 -24.5t24 -9.5h36v-110h-314v110h60l-40 143h-202l-44 -143h62v-110h-278v110h44q12 0 21 6.5t16 27.5zM443 350l-70 239h-10l-71 -239h151zM457 782q-14 0 -31 3.5t-35.5 14.5t-44 39.5t-36 35.5t-18.5 9.5t-17 2.5
q-23 0 -36 -18t-13 -48l2 -26h-77q-7 27 -7 60q0 44 16 76t47.5 49t69.5 17q22 0 38 -6t29.5 -15.5t46.5 -46.5t68 -37q24 0 36.5 18t12.5 48l-1 26h77q7 -33 7 -60q0 -44 -16 -76t-48 -49t-70 -17z" />
    <glyph glyph-name="Adieresis" unicode="&#xc4;" horiz-adv-x="754" 
d="M87 144l150 466h-102l29 110h338l187 -576q5 -15 13 -24.5t24 -9.5h36v-110h-314v110h60l-40 143h-202l-44 -143h62v-110h-278v110h44q12 0 21 6.5t16 27.5zM443 350l-70 239h-10l-71 -239h151zM431 795v139h157v-139h-157zM143 795v139h157v-139h-157z" />
    <glyph glyph-name="Aring" unicode="&#xc5;" horiz-adv-x="754" 
d="M381 846q61 0 92 -29t31 -76l-2 -22l187 -575q5 -15 13 -24.5t24 -9.5h36v-110h-314v110h60l-40 143h-202l-44 -143h62v-110h-278v110h44q12 0 21 6.5t16 27.5l150 466h-102l29 110h95l-1 21q0 47 31 76t92 29zM443 350l-70 239h-10l-71 -239h151zM381 702
q16 0 25.5 10.5t9.5 28.5t-9.5 28.5t-25.5 10.5t-25.5 -10.5t-9.5 -28.5t9.5 -28.5t25.5 -10.5z" />
    <glyph glyph-name="AE" unicode="&#xc6;" horiz-adv-x="1051" 
d="M261 610l29 110h713v-208h-92l-38 81h-187v-167h210v-109h-210v-191h196l32 84h92v-210h-560v110h35q28 0 28 25v118h-233l-89 -143h62v-110h-278v110h29q19 0 36 8t36 37l291 455h-102zM490 593l-153 -243h172v235l-1 8h-18z" />
    <glyph glyph-name="Ccedilla" unicode="&#xc7;" horiz-adv-x="666" 
d="M255 -257v77l49 -3q42 0 58 14t16 47q-5 12 -21.5 19t-41.5 7l-18 -1l-13 41l38 49q-138 17 -211 109t-73 257q0 93 24 164t69.5 117t111.5 69t150 23q52 0 118 -9.5t114 -23.5v-181h-102q-27 88 -136 88q-36 0 -67 -15t-53.5 -46t-35 -78t-12.5 -108q0 -121 47.5 -183
t127.5 -62q39 0 64 10t40.5 28.5t24.5 48.5h102v-180q-44 -14 -102 -22t-105 -10l-34 -43q110 -8 110 -95q0 -112 -185 -112q-22 0 -54 4z" />
    <glyph glyph-name="Egrave" unicode="&#xc8;" horiz-adv-x="648" 
d="M106 585q0 25 -25 25h-38v110h557v-208h-92l-38 81h-187v-167h210v-109h-210v-191h196l32 84h92v-210h-560v110h35q28 0 28 25v450zM311 795l-120 174h159l96 -151v-23h-135z" />
    <glyph glyph-name="Eacute" unicode="&#xc9;" horiz-adv-x="648" 
d="M106 585q0 25 -25 25h-38v110h557v-208h-92l-38 81h-187v-167h210v-109h-210v-191h196l32 84h92v-210h-560v110h35q28 0 28 25v450zM521 969l-120 -174h-135v23l96 151h159z" />
    <glyph glyph-name="Ecircumflex" unicode="&#xca;" horiz-adv-x="648" 
d="M106 585q0 25 -25 25h-38v110h557v-208h-92l-38 81h-187v-167h210v-109h-210v-191h196l32 84h92v-210h-560v110h35q28 0 28 25v450zM142 795l97 174h211l97 -174h-142l-60 117l-61 -117h-142z" />
    <glyph glyph-name="Edieresis" unicode="&#xcb;" horiz-adv-x="648" 
d="M106 585q0 25 -25 25h-38v110h557v-208h-92l-38 81h-187v-167h210v-109h-210v-191h196l32 84h92v-210h-560v110h35q28 0 28 25v450zM402 795v139h157v-139h-157zM114 795v139h157v-139h-157z" />
    <glyph glyph-name="Igrave" unicode="&#xcc;" horiz-adv-x="389" 
d="M106 585q0 25 -25 25h-38v110h303v-110h-38q-23 0 -25 -22v-455q1 -11 7 -17t21 -6h35v-110h-303v110h35q28 0 28 25v450zM120 795l-120 174h159l96 -151v-23h-135z" />
    <glyph glyph-name="Iacute" unicode="&#xcd;" horiz-adv-x="389" 
d="M106 585q0 25 -25 25h-38v110h303v-110h-38q-23 0 -25 -22v-455q1 -11 7 -17t21 -6h35v-110h-303v110h35q28 0 28 25v450zM383 969l-120 -174h-135v23l96 151h159z" />
    <glyph glyph-name="Icircumflex" unicode="&#xce;" horiz-adv-x="389" 
d="M106 585q0 25 -25 25h-38v110h303v-110h-38q-23 0 -25 -22v-455q1 -11 7 -17t21 -6h35v-110h-303v110h35q28 0 28 25v450zM-8 795l97 174h211l97 -174h-142l-60 117l-61 -117h-142z" />
    <glyph glyph-name="Idieresis" unicode="&#xcf;" horiz-adv-x="389" 
d="M106 585q0 25 -25 25h-38v110h303v-110h-38q-23 0 -25 -22v-455q1 -11 7 -17t21 -6h35v-110h-303v110h35q28 0 28 25v450zM260 795v139h157v-139h-157zM-28 795v139h157v-139h-157z" />
    <glyph glyph-name="Eth" unicode="&#xd0;" horiz-adv-x="781" 
d="M121 584q0 25 -25 25h-38v111h316q82 0 150 -19.5t116.5 -61.5t75.5 -111t27 -164q0 -88 -24 -157t-69 -115t-107 -69t-136 -23h-349v110h35q28 0 28 25v156h-112v129h112v164zM382 594h-83v-174h120v-129h-120v-165h83q91 0 135.5 59.5t44.5 178.5q0 117 -44.5 173.5
t-135.5 56.5z" />
    <glyph glyph-name="Ntilde" unicode="&#xd1;" horiz-adv-x="820" 
d="M725 585v-585h-188l-288 466v-356h63v-110h-269v110h35q28 0 28 25v450q0 25 -25 25h-38v110h254l287 -469v359h-63v110h267v-110h-38q-25 0 -25 -25zM505 782q-14 0 -31 3.5t-35.5 14.5t-44 39.5t-36 35.5t-18.5 9.5t-17 2.5q-23 0 -36 -18t-13 -48l2 -26h-77
q-7 27 -7 60q0 44 16 76t47.5 49t69.5 17q22 0 38 -6t29.5 -15.5t46.5 -46.5t68 -37q24 0 36.5 18t12.5 48l-1 26h77q7 -33 7 -60q0 -44 -16 -76t-48 -49t-70 -17z" />
    <glyph glyph-name="Ograve" unicode="&#xd2;" horiz-adv-x="762" 
d="M218 360q0 -246 163 -246q56 0 91.5 27.5t53.5 81t18 137.5q0 246 -163 246t-163 -246zM37 360q0 89 24 159.5t69 117.5t109 71t142 24t142.5 -24t109 -71t68.5 -117.5t24 -159.5t-24 -159.5t-68.5 -117.5t-109 -71t-142.5 -24t-142 24t-109 71t-69 117.5t-24 159.5z
M303 795l-120 174h159l96 -151v-23h-135z" />
    <glyph glyph-name="Oacute" unicode="&#xd3;" horiz-adv-x="762" 
d="M218 360q0 -246 163 -246q56 0 91.5 27.5t53.5 81t18 137.5q0 246 -163 246t-163 -246zM37 360q0 89 24 159.5t69 117.5t109 71t142 24t142.5 -24t109 -71t68.5 -117.5t24 -159.5t-24 -159.5t-68.5 -117.5t-109 -71t-142.5 -24t-142 24t-109 71t-69 117.5t-24 159.5z
M564 969l-120 -174h-135v23l96 151h159z" />
    <glyph glyph-name="Ocircumflex" unicode="&#xd4;" horiz-adv-x="762" 
d="M218 360q0 -246 163 -246q56 0 91.5 27.5t53.5 81t18 137.5q0 246 -163 246t-163 -246zM37 360q0 89 24 159.5t69 117.5t109 71t142 24t142.5 -24t109 -71t68.5 -117.5t24 -159.5t-24 -159.5t-68.5 -117.5t-109 -71t-142.5 -24t-142 24t-109 71t-69 117.5t-24 159.5z
M180 795l97 174h211l97 -174h-142l-60 117l-61 -117h-142z" />
    <glyph glyph-name="Otilde" unicode="&#xd5;" horiz-adv-x="762" 
d="M218 360q0 -246 163 -246q56 0 91.5 27.5t53.5 81t18 137.5q0 246 -163 246t-163 -246zM37 360q0 89 24 159.5t69 117.5t109 71t142 24t142.5 -24t109 -71t68.5 -117.5t24 -159.5t-24 -159.5t-68.5 -117.5t-109 -71t-142.5 -24t-142 24t-109 71t-69 117.5t-24 159.5z
M471 782q-14 0 -31 3.5t-35.5 14.5t-44 39.5t-36 35.5t-18.5 9.5t-17 2.5q-23 0 -36 -18t-13 -48l2 -26h-77q-7 27 -7 60q0 44 16 76t47.5 49t69.5 17q22 0 38 -6t29.5 -15.5t46.5 -46.5t68 -37q24 0 36.5 18t12.5 48l-1 26h77q7 -33 7 -60q0 -44 -16 -76t-48 -49t-70 -17z
" />
    <glyph glyph-name="Odieresis" unicode="&#xd6;" horiz-adv-x="762" 
d="M218 360q0 -246 163 -246q56 0 91.5 27.5t53.5 81t18 137.5q0 246 -163 246t-163 -246zM37 360q0 89 24 159.5t69 117.5t109 71t142 24t142.5 -24t109 -71t68.5 -117.5t24 -159.5t-24 -159.5t-68.5 -117.5t-109 -71t-142.5 -24t-142 24t-109 71t-69 117.5t-24 159.5z
M447 795v139h157v-139h-157zM159 795v139h157v-139h-157z" />
    <glyph glyph-name="multiply" unicode="&#xd7;" horiz-adv-x="507" 
d="M462 402l-118 -118l122 -122l-93 -93l-122 122l-122 -122l-86 87l121 121l-122 123l93 93l123 -122l118 118z" />
    <glyph glyph-name="Oslash" unicode="&#xd8;" horiz-adv-x="762" 
d="M138 -55l40 97q-68 45 -104.5 125t-36.5 193q0 89 24 159.5t69 117.5t109 71t142 24q43 0 78 -7l20 50h147l-41 -98q67 -45 103.5 -125.5t36.5 -191.5q0 -89 -24 -159.5t-68.5 -117.5t-109 -71t-142.5 -24q-45 0 -80 7l-20 -50h-143zM544 360q0 99 -26 157l-166 -401
q9 -2 29 -2q56 0 91.5 27.5t53.5 81t18 137.5zM218 360q0 -100 26 -158l165 402l-28 2q-163 0 -163 -246z" />
    <glyph glyph-name="Ugrave" unicode="&#xd9;" horiz-adv-x="752" 
d="M668 587v-329q0 -140 -73 -205t-216 -65q-147 0 -221 65.5t-74 204.5v329q0 23 -24 23h-34v110h297v-110h-62v-366q0 -130 131 -130q23 0 53.5 8t53.5 37.5t23 83.5v367h-58v110h262v-110h-34q-24 0 -24 -23zM311 795l-120 174h159l96 -151v-23h-135z" />
    <glyph glyph-name="Uacute" unicode="&#xda;" horiz-adv-x="752" 
d="M668 587v-329q0 -140 -73 -205t-216 -65q-147 0 -221 65.5t-74 204.5v329q0 23 -24 23h-34v110h297v-110h-62v-366q0 -130 131 -130q23 0 53.5 8t53.5 37.5t23 83.5v367h-58v110h262v-110h-34q-24 0 -24 -23zM556 969l-120 -174h-135v23l96 151h159z" />
    <glyph glyph-name="Ucircumflex" unicode="&#xdb;" horiz-adv-x="752" 
d="M668 587v-329q0 -140 -73 -205t-216 -65q-147 0 -221 65.5t-74 204.5v329q0 23 -24 23h-34v110h297v-110h-62v-366q0 -130 131 -130q23 0 53.5 8t53.5 37.5t23 83.5v367h-58v110h262v-110h-34q-24 0 -24 -23zM177 795l97 174h211l97 -174h-142l-60 117l-61 -117h-142z
" />
    <glyph glyph-name="Udieresis" unicode="&#xdc;" horiz-adv-x="752" 
d="M668 587v-329q0 -140 -73 -205t-216 -65q-147 0 -221 65.5t-74 204.5v329q0 23 -24 23h-34v110h297v-110h-62v-366q0 -130 131 -130q23 0 53.5 8t53.5 37.5t23 83.5v367h-58v110h262v-110h-34q-24 0 -24 -23zM446 795v139h157v-139h-157zM158 795v139h157v-139h-157z" />
    <glyph glyph-name="Yacute" unicode="&#xdd;" horiz-adv-x="709" 
d="M268 274l-194 304q-20 32 -49 32h-32v110h313v-110h-57l130 -213l121 213h-64v110h279v-110h-34q-17 0 -31 -6.5t-27 -27.5l-177 -303v-140q0 -23 28 -23h35v-110h-304v110h35q28 0 28 25v139zM554 969l-120 -174h-135v23l96 151h159z" />
    <glyph glyph-name="Thorn" unicode="&#xde;" horiz-adv-x="672" 
d="M43 0v110h35q13 0 20.5 7t7.5 17v450q0 25 -25 25h-38v111h236v-122h131q42 0 85 -12t77.5 -40.5t56.5 -74t22 -105.5q0 -51 -16.5 -94.5t-48 -75.5t-77.5 -49.5t-102 -17.5h-128v-129h-236zM365 469h-86v-211h87q30 0 56 10.5t39 36.5t13 59q0 46 -26.5 75.5t-82.5 29.5
z" />
    <glyph glyph-name="germandbls" unicode="&#xdf;" horiz-adv-x="662" 
d="M85 123v376q0 59 15.5 109.5t47.5 88t82 58t114 20.5q39 0 81.5 -9t84 -34.5t62.5 -68t21 -88.5q0 -66 -37.5 -114.5t-101.5 -70.5q46 -9 88.5 -32t66.5 -64t24 -92q0 -67 -29.5 -112.5t-83 -70t-129.5 -24.5q-40 0 -86 8v107q27 -5 48 -5q36 0 62.5 14.5t36.5 41
t10 57.5q0 55 -37.5 79.5t-111.5 26.5v105q54 0 81 34t27 88q0 38 -20 67.5t-60 29.5q-39 0 -63 -32t-24 -106v-510h-233v103h39q25 0 25 20z" />
    <glyph glyph-name="agrave" unicode="&#xe0;" 
d="M235 320h112v64q0 32 -22.5 50.5t-58.5 18.5q-41 0 -69 -17.5t-37 -53.5h-96v151q42 10 102.5 19t116.5 9q116 0 173.5 -54.5t57.5 -149.5v-218q0 -18 9 -27t31 -9h24v-101q-77 -10 -99 -10q-41 0 -72.5 15t-46.5 45q-35 -26 -81.5 -43t-84.5 -17q-44 0 -84.5 18.5
t-62.5 58t-22 89.5q0 72 53.5 117t156.5 45zM347 138v96h-72q-36 0 -58.5 -16t-22.5 -49q0 -28 16.5 -42.5t39.5 -16.5q63 0 97 28zM221 615l-120 174h159l96 -151v-23h-135z" />
    <glyph glyph-name="aacute" unicode="&#xe1;" 
d="M235 320h112v64q0 32 -22.5 50.5t-58.5 18.5q-41 0 -69 -17.5t-37 -53.5h-96v151q42 10 102.5 19t116.5 9q116 0 173.5 -54.5t57.5 -149.5v-218q0 -18 9 -27t31 -9h24v-101q-77 -10 -99 -10q-41 0 -72.5 15t-46.5 45q-35 -26 -81.5 -43t-84.5 -17q-44 0 -84.5 18.5
t-62.5 58t-22 89.5q0 72 53.5 117t156.5 45zM347 138v96h-72q-36 0 -58.5 -16t-22.5 -49q0 -28 16.5 -42.5t39.5 -16.5q63 0 97 28zM477 789l-120 -174h-135v23l96 151h159z" />
    <glyph glyph-name="acircumflex" unicode="&#xe2;" 
d="M235 320h112v64q0 32 -22.5 50.5t-58.5 18.5q-41 0 -69 -17.5t-37 -53.5h-96v151q42 10 102.5 19t116.5 9q116 0 173.5 -54.5t57.5 -149.5v-218q0 -18 9 -27t31 -9h24v-101q-77 -10 -99 -10q-41 0 -72.5 15t-46.5 45q-35 -26 -81.5 -43t-84.5 -17q-44 0 -84.5 18.5
t-62.5 58t-22 89.5q0 72 53.5 117t156.5 45zM347 138v96h-72q-36 0 -58.5 -16t-22.5 -49q0 -28 16.5 -42.5t39.5 -16.5q63 0 97 28zM109 615l97 174h211l97 -174h-142l-60 117l-61 -117h-142z" />
    <glyph glyph-name="atilde" unicode="&#xe3;" 
d="M235 320h112v64q0 32 -22.5 50.5t-58.5 18.5q-41 0 -69 -17.5t-37 -53.5h-96v151q42 10 102.5 19t116.5 9q116 0 173.5 -54.5t57.5 -149.5v-218q0 -18 9 -27t31 -9h24v-101q-77 -10 -99 -10q-41 0 -72.5 15t-46.5 45q-35 -26 -81.5 -43t-84.5 -17q-44 0 -84.5 18.5
t-62.5 58t-22 89.5q0 72 53.5 117t156.5 45zM347 138v96h-72q-36 0 -58.5 -16t-22.5 -49q0 -28 16.5 -42.5t39.5 -16.5q63 0 97 28zM363 614q-14 0 -31 3.5t-35.5 14.5t-44 39.5t-36 35.5t-18.5 9.5t-17 2.5q-23 0 -36 -18t-13 -48l2 -26h-77q-7 27 -7 60q0 44 16 76
t47.5 49t69.5 17q22 0 38 -6t29.5 -15.5t46.5 -46.5t68 -37q24 0 36.5 18t12.5 48l-1 26h77q7 -33 7 -60q0 -44 -16 -76t-48 -49t-70 -17z" />
    <glyph glyph-name="adieresis" unicode="&#xe4;" 
d="M235 320h112v64q0 32 -22.5 50.5t-58.5 18.5q-41 0 -69 -17.5t-37 -53.5h-96v151q42 10 102.5 19t116.5 9q116 0 173.5 -54.5t57.5 -149.5v-218q0 -18 9 -27t31 -9h24v-101q-77 -10 -99 -10q-41 0 -72.5 15t-46.5 45q-35 -26 -81.5 -43t-84.5 -17q-44 0 -84.5 18.5
t-62.5 58t-22 89.5q0 72 53.5 117t156.5 45zM347 138v96h-72q-36 0 -58.5 -16t-22.5 -49q0 -28 16.5 -42.5t39.5 -16.5q63 0 97 28zM349 635v139h157v-139h-157zM61 635v139h157v-139h-157z" />
    <glyph glyph-name="aring" unicode="&#xe5;" 
d="M235 320h112v64q0 32 -22.5 50.5t-58.5 18.5q-41 0 -69 -17.5t-37 -53.5h-96v151q42 10 102.5 19t116.5 9q116 0 173.5 -54.5t57.5 -149.5v-218q0 -18 9 -27t31 -9h24v-101q-77 -10 -99 -10q-41 0 -72.5 15t-46.5 45q-35 -26 -81.5 -43t-84.5 -17q-44 0 -84.5 18.5
t-62.5 58t-22 89.5q0 72 53.5 117t156.5 45zM347 138v96h-72q-36 0 -58.5 -16t-22.5 -49q0 -28 16.5 -42.5t39.5 -16.5q63 0 97 28zM278 815q61 0 92 -29t31 -76t-31 -76t-92 -29t-92 29t-31 76t31 76t92 29zM278 671q16 0 25.5 10.5t9.5 28.5t-9.5 28.5t-25.5 10.5
t-25.5 -10.5t-9.5 -28.5t9.5 -28.5t25.5 -10.5z" />
    <glyph glyph-name="ae" unicode="&#xe6;" horiz-adv-x="893" 
d="M622 -12q-48 0 -93.5 10t-75 27t-44.5 33q-43 -31 -91 -48.5t-110 -17.5q-82 0 -132.5 45t-50.5 126q0 72 53.5 117.5t156.5 45.5h112v58q0 32 -22.5 50.5t-58.5 18.5q-41 0 -69 -17.5t-37 -53.5h-96v151q42 10 102.5 19t116.5 9q104 0 163 -45q68 45 167 45
q118 0 181 -64t63 -197v-60h-342q1 -68 31.5 -99t95.5 -31q25 0 52 8t46 25t28 36h79v-143q-47 -22 -112 -35t-113 -13zM514 336h187q0 113 -92 113q-46 0 -70.5 -32.5t-24.5 -80.5zM347 138v102h-72q-26 0 -45.5 -9t-27.5 -25t-8 -32q0 -30 19.5 -46.5t48.5 -16.5
q21 0 45.5 8t39.5 19z" />
    <glyph glyph-name="ccedilla" unicode="&#xe7;" horiz-adv-x="552" 
d="M192 -257v77l49 -3q42 0 58 14t16 47q-5 12 -21.5 19t-41.5 7l-18 -1l-13 41l38 49q-114 17 -170.5 90.5t-56.5 190.5q0 79 25 136t66.5 90t92.5 47t106 14q44 0 96 -8t92 -23v-157h-99q-27 61 -86 61q-61 0 -91 -41.5t-30 -118.5q0 -74 30.5 -116.5t92.5 -42.5
q25 0 46.5 13.5t38.5 55.5h98v-166q-31 -12 -72.5 -19.5t-81.5 -9.5l-35 -43q110 -8 110 -95q0 -112 -185 -112q-22 0 -54 4z" />
    <glyph glyph-name="egrave" unicode="&#xe8;" horiz-adv-x="587" 
d="M316 -12q-67 0 -120 17.5t-89.5 52.5t-55.5 89.5t-19 126.5q0 70 19.5 124.5t56 90.5t87.5 54t112 18q118 0 181 -64t63 -197v-60h-341q1 -68 31 -99t95 -31q25 0 52 8t46 25t28 36h79v-143q-47 -22 -112 -35t-113 -13zM208 336h187q0 113 -92 113q-46 0 -70.5 -32.5
t-24.5 -80.5zM229 615l-120 174h159l96 -151v-23h-135z" />
    <glyph glyph-name="eacute" unicode="&#xe9;" horiz-adv-x="587" 
d="M316 -12q-67 0 -120 17.5t-89.5 52.5t-55.5 89.5t-19 126.5q0 70 19.5 124.5t56 90.5t87.5 54t112 18q118 0 181 -64t63 -197v-60h-341q1 -68 31 -99t95 -31q25 0 52 8t46 25t28 36h79v-143q-47 -22 -112 -35t-113 -13zM208 336h187q0 113 -92 113q-46 0 -70.5 -32.5
t-24.5 -80.5zM482 789l-120 -174h-135v23l96 151h159z" />
    <glyph glyph-name="ecircumflex" unicode="&#xea;" horiz-adv-x="587" 
d="M316 -12q-67 0 -120 17.5t-89.5 52.5t-55.5 89.5t-19 126.5q0 70 19.5 124.5t56 90.5t87.5 54t112 18q118 0 181 -64t63 -197v-60h-341q1 -68 31 -99t95 -31q25 0 52 8t46 25t28 36h79v-143q-47 -22 -112 -35t-113 -13zM208 336h187q0 113 -92 113q-46 0 -70.5 -32.5
t-24.5 -80.5zM84 615l97 174h211l97 -174h-142l-60 117l-61 -117h-142z" />
    <glyph glyph-name="edieresis" unicode="&#xeb;" horiz-adv-x="587" 
d="M316 -12q-67 0 -120 17.5t-89.5 52.5t-55.5 89.5t-19 126.5q0 70 19.5 124.5t56 90.5t87.5 54t112 18q118 0 181 -64t63 -197v-60h-341q1 -68 31 -99t95 -31q25 0 52 8t46 25t28 36h79v-143q-47 -22 -112 -35t-113 -13zM208 336h187q0 113 -92 113q-46 0 -70.5 -32.5
t-24.5 -80.5zM359 635v139h157v-139h-157zM71 635v139h157v-139h-157z" />
    <glyph glyph-name="igrave" unicode="&#xec;" horiz-adv-x="337" 
d="M106 615l-120 174h159l96 -151v-23h-135zM251 142q0 -40 31 -40h33v-104q-45 -8 -91 -8q-77 0 -109 29.5t-32 94.5v306q0 11 -4.5 18t-21.5 7h-38v103h232v-406z" />
    <glyph glyph-name="iacute" unicode="&#xed;" horiz-adv-x="337" 
d="M354 789l-120 -174h-135v23l96 151h159zM251 142q0 -40 31 -40h33v-104q-45 -8 -91 -8q-77 0 -109 29.5t-32 94.5v306q0 11 -4.5 18t-21.5 7h-38v103h232v-406z" />
    <glyph glyph-name="icircumflex" unicode="&#xee;" horiz-adv-x="337" 
d="M251 142q0 -40 31 -40h33v-104q-45 -8 -91 -8q-77 0 -109 29.5t-32 94.5v306q0 11 -4.5 18t-21.5 7h-38v103h232v-406zM-40 615l97 174h211l97 -174h-142l-60 117l-61 -117h-142z" />
    <glyph glyph-name="idieresis" unicode="&#xef;" horiz-adv-x="337" 
d="M217 635v139h157v-139h-157zM-71 635v139h157v-139h-157zM251 142q0 -40 31 -40h33v-104q-45 -8 -91 -8q-77 0 -109 29.5t-32 94.5v306q0 11 -4.5 18t-21.5 7h-38v103h232v-406z" />
    <glyph glyph-name="eth" unicode="&#xf0;" horiz-adv-x="631" 
d="M155 763h173q31 -24 58 -51l94 50l53 -81l-75 -40q62 -69 100 -157t38 -188q0 -150 -74 -229t-218 -79q-48 0 -88.5 11.5t-72 31t-56 50t-39 74.5t-14.5 98q0 62 19.5 111t53.5 81t79 48.5t95 16.5q27 0 62.5 -5t62.5 -16q-25 56 -62 101l-85 -49l-51 78l68 37
q-23 24 -59.5 56.5t-61.5 50.5zM206 253q0 -67 28 -104t83 -37q59 0 87.5 37.5t28.5 102.5q0 68 -27 102.5t-85 34.5t-86.5 -37.5t-28.5 -98.5z" />
    <glyph glyph-name="ntilde" unicode="&#xf1;" horiz-adv-x="687" 
d="M608 396v-269q0 -15 6.5 -19.5t18.5 -4.5h39v-103h-289v103h57v261q0 69 -68 69q-23 0 -54 -12.5t-53 -26.5v-291h57v-103h-289v103h39q12 0 18.5 4.5t6.5 19.5v293q0 11 -4.5 18t-20.5 7h-39v103h224v-49q42 29 91.5 45.5t98.5 16.5q51 0 87 -19.5t55 -55.5t19 -90z
M444 614q-14 0 -31 3.5t-35.5 14.5t-44 39.5t-36 35.5t-18.5 9.5t-17 2.5q-23 0 -36 -18t-13 -48l2 -26h-77q-7 27 -7 60q0 44 16 76t47.5 49t69.5 17q22 0 38 -6t29.5 -15.5t46.5 -46.5t68 -37q24 0 36.5 18t12.5 48l-1 26h77q7 -33 7 -60q0 -44 -16 -76t-48 -49t-70 -17z
" />
    <glyph glyph-name="ograve" unicode="&#xf2;" horiz-adv-x="630" 
d="M204 274q0 -82 25.5 -124t85.5 -42t86 42t26 124t-26 124t-86 42t-85.5 -42t-25.5 -124zM32 274q0 72 20.5 127t58.5 90t90 52.5t114 17.5q61 0 113.5 -17.5t90 -53t58.5 -90.5t21 -126t-21 -126t-58.5 -90t-89.5 -52.5t-114 -17.5t-114 17t-90 52t-58.5 90t-20.5 127z
M264 615l-120 174h159l96 -151v-23h-135z" />
    <glyph glyph-name="oacute" unicode="&#xf3;" horiz-adv-x="630" 
d="M204 274q0 -82 25.5 -124t85.5 -42t86 42t26 124t-26 124t-86 42t-85.5 -42t-25.5 -124zM32 274q0 72 20.5 127t58.5 90t90 52.5t114 17.5q61 0 113.5 -17.5t90 -53t58.5 -90.5t21 -126t-21 -126t-58.5 -90t-89.5 -52.5t-114 -17.5t-114 17t-90 52t-58.5 90t-20.5 127z
M508 789l-120 -174h-135v23l96 151h159z" />
    <glyph glyph-name="ocircumflex" unicode="&#xf4;" horiz-adv-x="630" 
d="M204 274q0 -82 25.5 -124t85.5 -42t86 42t26 124t-26 124t-86 42t-85.5 -42t-25.5 -124zM32 274q0 72 20.5 127t58.5 90t90 52.5t114 17.5q61 0 113.5 -17.5t90 -53t58.5 -90.5t21 -126t-21 -126t-58.5 -90t-89.5 -52.5t-114 -17.5t-114 17t-90 52t-58.5 90t-20.5 127z
M113 615l97 174h211l97 -174h-142l-60 117l-61 -117h-142z" />
    <glyph glyph-name="otilde" unicode="&#xf5;" horiz-adv-x="630" 
d="M204 274q0 -82 25.5 -124t85.5 -42t86 42t26 124t-26 124t-86 42t-85.5 -42t-25.5 -124zM32 274q0 72 20.5 127t58.5 90t90 52.5t114 17.5q61 0 113.5 -17.5t90 -53t58.5 -90.5t21 -126t-21 -126t-58.5 -90t-89.5 -52.5t-114 -17.5t-114 17t-90 52t-58.5 90t-20.5 127z
M405 606q-14 0 -31 3.5t-35.5 14.5t-44 39.5t-36 35.5t-18.5 9.5t-17 2.5q-23 0 -36 -18t-13 -48l2 -26h-77q-7 27 -7 60q0 44 16 76t47.5 49t69.5 17q22 0 38 -6t29.5 -15.5t46.5 -46.5t68 -37q24 0 36.5 18t12.5 48l-1 26h77q7 -33 7 -60q0 -44 -16 -76t-48 -49t-70 -17z
" />
    <glyph glyph-name="odieresis" unicode="&#xf6;" horiz-adv-x="630" 
d="M204 274q0 -82 25.5 -124t85.5 -42t86 42t26 124t-26 124t-86 42t-85.5 -42t-25.5 -124zM32 274q0 72 20.5 127t58.5 90t90 52.5t114 17.5q61 0 113.5 -17.5t90 -53t58.5 -90.5t21 -126t-21 -126t-58.5 -90t-89.5 -52.5t-114 -17.5t-114 17t-90 52t-58.5 90t-20.5 127z
M381 635v139h157v-139h-157zM93 635v139h157v-139h-157z" />
    <glyph glyph-name="divide" unicode="&#xf7;" horiz-adv-x="567" 
d="M519 222h-471v122h471v-122zM346 426h-122v103h122v-103zM224 137h122v-102h-122v102z" />
    <glyph glyph-name="oslash" unicode="&#xf8;" horiz-adv-x="631" 
d="M94 -76l47 110q-37 25 -63 65t-35.5 87t-9.5 88q0 72 20.5 127t58.5 90t90 52.5t114 17.5q26 0 48 -3l27 63h147l-46 -108q50 -35 78.5 -95.5t28.5 -143.5q0 -71 -21 -126t-58.5 -90t-89.5 -52.5t-114 -17.5q-24 0 -47 3l-28 -67h-147zM205 274q0 -42 6 -75l103 241
q-59 -1 -84 -42.5t-25 -123.5zM428 274q0 43 -7 74l-102 -240q58 1 83.5 43t25.5 123z" />
    <glyph glyph-name="ugrave" unicode="&#xf9;" horiz-adv-x="673" 
d="M431 52q-36 -25 -89 -44.5t-100 -19.5q-53 0 -89.5 19t-56 55t-19.5 92v269q0 22 -23 22h-35v103h226v-362q0 -35 14 -51.5t43 -16.5q25 0 58 10.5t59 26.5v278q-3 12 -24 12h-39v103h231v-406q0 -39 37 -39h27v-103q-43 -9 -96 -9q-58 0 -85 17t-39 44zM277 615
l-120 174h159l96 -151v-23h-135z" />
    <glyph glyph-name="uacute" unicode="&#xfa;" horiz-adv-x="673" 
d="M431 52q-36 -25 -89 -44.5t-100 -19.5q-53 0 -89.5 19t-56 55t-19.5 92v269q0 22 -23 22h-35v103h226v-362q0 -35 14 -51.5t43 -16.5q25 0 58 10.5t59 26.5v278q-3 12 -24 12h-39v103h231v-406q0 -39 37 -39h27v-103q-43 -9 -96 -9q-58 0 -85 17t-39 44zM519 789
l-120 -174h-135v23l96 151h159z" />
    <glyph glyph-name="ucircumflex" unicode="&#xfb;" horiz-adv-x="673" 
d="M431 52q-36 -25 -89 -44.5t-100 -19.5q-53 0 -89.5 19t-56 55t-19.5 92v269q0 22 -23 22h-35v103h226v-362q0 -35 14 -51.5t43 -16.5q25 0 58 10.5t59 26.5v278q-3 12 -24 12h-39v103h231v-406q0 -39 37 -39h27v-103q-43 -9 -96 -9q-58 0 -85 17t-39 44zM113 615l97 174
h211l97 -174h-142l-60 117l-61 -117h-142z" />
    <glyph glyph-name="udieresis" unicode="&#xfc;" horiz-adv-x="673" 
d="M431 52q-36 -25 -89 -44.5t-100 -19.5q-53 0 -89.5 19t-56 55t-19.5 92v269q0 22 -23 22h-35v103h226v-362q0 -35 14 -51.5t43 -16.5q25 0 58 10.5t59 26.5v278q-3 12 -24 12h-39v103h231v-406q0 -39 37 -39h27v-103q-43 -9 -96 -9q-58 0 -85 17t-39 44zM385 635v139h157
v-139h-157zM97 635v139h157v-139h-157z" />
    <glyph glyph-name="yacute" unicode="&#xfd;" horiz-adv-x="631" 
d="M569 429l-153 -432l-59 -202h-193v49l119 151v4h-69l-153 436q-4 10 -18 10h-36v103h290v-103h-64l95 -296h9l98 296h-61v103h247v-103h-34q-13 0 -18 -16zM509 789l-120 -174h-135v23l96 151h159z" />
    <glyph glyph-name="thorn" unicode="&#xfe;" horiz-adv-x="637" 
d="M66 -82v717q0 15 -6.5 19.5t-18.5 4.5h-39v103h233v-259q87 58 173 58q40 0 75 -14.5t62 -46.5t42.5 -85.5t15.5 -127.5q0 -83 -19.5 -142t-55 -93t-83.5 -49t-106 -15q-39 0 -105 14v-104h65v-103h-297v103h39q25 0 25 20zM431 280q0 82 -22.5 119t-66.5 37
q-24 0 -53.5 -11t-53.5 -28v-276q38 -12 73 -12q36 0 63 11t43.5 45t16.5 115z" />
    <glyph glyph-name="ydieresis" unicode="&#xff;" horiz-adv-x="631" 
d="M569 429l-153 -432l-59 -202h-193v49l119 151v4h-69l-153 436q-4 10 -18 10h-36v103h290v-103h-64l95 -296h9l98 296h-61v103h247v-103h-34q-13 0 -18 -16zM399 635v139h157v-139h-157zM111 635v139h157v-139h-157z" />
    <glyph glyph-name="dotlessi" unicode="&#x131;" horiz-adv-x="337" 
d="M251 142q0 -40 31 -40h33v-104q-45 -8 -91 -8q-77 0 -109 29.5t-32 94.5v306q0 11 -4.5 18t-21.5 7h-38v103h232v-406z" />
    <glyph glyph-name="Lslash" unicode="&#x141;" horiz-adv-x="617" 
d="M116 584q0 25 -25 25h-38v111h303v-111h-63v-155l143 38v-124l-143 -37v-205h182l33 98h95v-224h-550v110h35q28 0 28 25v151l-105 -26v119l105 28v177z" />
    <glyph glyph-name="lslash" unicode="&#x142;" horiz-adv-x="419" 
d="M122 635q0 11 -4.5 18t-20.5 7h-39v103h232v-258l126 51v-124l-126 -50v-258q0 -21 23 -21h42v-103h-297v103h39q25 0 25 20v193l-113 -44v120l113 45v198z" />
    <glyph glyph-name="OE" unicode="&#x152;" horiz-adv-x="1085" 
d="M381 732q68 0 120 -12h536v-208h-92l-38 81h-187v-167h210v-109h-210v-191h196l32 84h92v-210h-556q-51 -12 -103 -12q-78 0 -142 24t-109 71t-69 117.5t-24 159.5t24 159.5t69 117.5t109 71t142 24zM381 114q48 0 87 10.5t75 37.5v398q-73 46 -162 46q-163 0 -163 -246
t163 -246z" />
    <glyph glyph-name="oe" unicode="&#x153;" horiz-adv-x="982" 
d="M711 -12q-131 0 -202 62q-36 -31 -86 -46.5t-108 -15.5q-62 0 -114 17t-90 52t-58.5 90t-20.5 127t20.5 127t58.5 90t90 52.5t114 17.5q58 0 108.5 -16.5t87.5 -47.5q71 64 191 64q118 0 181 -64t63 -197v-60h-341q1 -68 31 -99t95 -31q25 0 52 8t46 25t28 36h79v-143
q-47 -22 -112 -35t-113 -13zM204 274q0 -82 25.5 -124t85.5 -42t86 42t26 124q0 84 -26.5 125t-85.5 41q-60 0 -85.5 -42t-25.5 -124zM603 336h187q0 113 -92 113q-46 0 -70.5 -32.5t-24.5 -80.5z" />
    <glyph glyph-name="Scaron" unicode="&#x160;" horiz-adv-x="629" 
d="M300 109q23 0 50.5 9t46.5 32.5t19 51.5q0 32 -25.5 54t-110.5 45t-115.5 37t-50 28t-35 32.5t-26.5 48t-11 70.5q0 42 16 82t53 69.5t93.5 46.5t130.5 17q49 0 114 -10t116 -27v-180h-105q-1 20 -15 43.5t-47.5 40t-70.5 16.5q-49 0 -77.5 -20.5t-28.5 -55.5
q0 -22 15.5 -38t42 -26.5t105 -32t122 -48t67 -66.5t23.5 -97q0 -47 -16 -92t-53 -78.5t-93.5 -53t-131.5 -19.5q-51 0 -124 11t-128 30v186h107q5 -49 42.5 -77.5t100.5 -28.5zM531 969l-96 -174h-211l-98 174h142l61 -118l60 118h142z" />
    <glyph glyph-name="scaron" unicode="&#x161;" horiz-adv-x="516" 
d="M280 561q37 0 89.5 -6.5t94.5 -15.5v-136h-84q-14 27 -42 40.5t-62 13.5t-50.5 -14.5t-16.5 -35.5q0 -15 11.5 -28.5t53 -23.5t45.5 -11q56 -15 89 -31t54 -49t21 -86q0 -37 -12.5 -72t-42.5 -61t-78 -41.5t-116 -15.5q-40 0 -95.5 7t-95.5 17v142h93q6 -30 34 -49
t61 -19q34 0 56.5 15.5t22.5 48.5q0 20 -18.5 35t-79.5 29q-66 15 -103 38.5t-54 58t-17 77.5q0 55 27.5 92.5t81 59t133.5 21.5zM468 789l-96 -174h-211l-98 174h142l61 -118l60 118h142z" />
    <glyph glyph-name="Ydieresis" unicode="&#x178;" horiz-adv-x="709" 
d="M268 274l-194 304q-20 32 -49 32h-32v110h313v-110h-57l130 -213l121 213h-64v110h279v-110h-34q-17 0 -31 -6.5t-27 -27.5l-177 -303v-140q0 -23 28 -23h35v-110h-304v110h35q28 0 28 25v139zM434 795v139h157v-139h-157zM146 795v139h157v-139h-157z" />
    <glyph glyph-name="Zcaron" unicode="&#x17d;" horiz-adv-x="662" 
d="M609 720v-135l-353 -459h198q18 0 35 11t26.5 35t11.5 50h99v-222h-584v134l356 460h-176q-36 0 -55 -26.5t-22 -71.5h-101v224h565zM537 969l-96 -174h-211l-98 174h142l61 -118l60 118h142z" />
    <glyph glyph-name="zcaron" unicode="&#x17e;" horiz-adv-x="557" 
d="M308 445h-94q-39 0 -56.5 -17t-22.5 -49h-99v169h479v-101l-264 -345h81q22 0 42.5 5.5t31.5 21t16 44.5h99v-173h-481v101zM483 789l-96 -174h-211l-98 174h142l61 -118l60 118h142z" />
    <glyph glyph-name="florin" unicode="&#x192;" horiz-adv-x="612" 
d="M378 17q0 -248 -221 -248q-75 0 -132 11l14 120q42 -11 87 -11q56 0 79.5 34.5t23.5 106.5v249h-112v118h112v115q0 250 225 250q75 0 130 -11l-14 -120q-42 11 -88 11q-55 0 -79.5 -35t-24.5 -106v-104h153v-118h-153v-262z" />
    <glyph glyph-name="circumflex" unicode="&#x2c6;" horiz-adv-x="680" 
d="M137 615l97 174h211l97 -174h-142l-60 117l-61 -117h-142z" />
    <glyph glyph-name="caron" unicode="&#x2c7;" horiz-adv-x="680" 
d="M542 789l-96 -174h-211l-98 174h142l61 -118l60 118h142z" />
    <glyph glyph-name="breve" unicode="&#x2d8;" horiz-adv-x="638" 
d="M319 610q-69 0 -127.5 20.5t-92.5 59.5l41 78q85 -54 179 -54q95 0 178 54l41 -78q-16 -18 -46 -37.5t-76.5 -31t-96.5 -11.5z" />
    <glyph glyph-name="dotaccent" unicode="&#x2d9;" horiz-adv-x="347" 
d="M100 631v134h146v-134h-146z" />
    <glyph glyph-name="ring" unicode="&#x2da;" horiz-adv-x="447" 
d="M222 805q61 0 92 -29t31 -76t-31 -76t-92 -29t-92 29t-31 76t31 76t92 29zM222 661q16 0 25.5 10.5t9.5 28.5t-9.5 28.5t-25.5 10.5t-25.5 -10.5t-9.5 -28.5t9.5 -28.5t25.5 -10.5z" />
    <glyph glyph-name="ogonek" unicode="&#x2db;" horiz-adv-x="463" 
d="M195 0h92q-51 -57 -51 -100q0 -25 18.5 -39.5t52.5 -14.5q20 0 39 4l-4 -98q-11 -3 -38.5 -6t-53.5 -3q-51 0 -84 18t-44.5 44.5t-11.5 48.5q0 25 12 53.5t32.5 52t40.5 40.5z" />
    <glyph glyph-name="tilde" unicode="&#x2dc;" horiz-adv-x="702" 
d="M451 606q-14 0 -31 3.5t-35.5 14.5t-44 39.5t-36 35.5t-18.5 9.5t-17 2.5q-23 0 -36 -18t-13 -48l2 -26h-77q-7 27 -7 60q0 44 16 76t47.5 49t69.5 17q22 0 38 -6t29.5 -15.5t46.5 -46.5t68 -37q24 0 36.5 18t12.5 48l-1 26h77q7 -33 7 -60q0 -44 -16 -76t-48 -49
t-70 -17z" />
    <glyph glyph-name="hungarumlaut" unicode="&#x2dd;" horiz-adv-x="808" 
d="M682 789l-120 -174h-135l79 174h176zM422 789l-120 -174h-135l79 174h176z" />
    <glyph glyph-name="Delta" unicode="&#x394;" horiz-adv-x="753" 
d="M729 0h-705l261 670h183zM380 523l-148 -388h296z" />
    <glyph glyph-name="Omega" unicode="&#x3a9;" horiz-adv-x="787" 
d="M394 580q-80 0 -127.5 -51.5t-47.5 -135.5q0 -53 21.5 -108t54 -92t62.5 -56v-137h-315v134h151q-40 30 -69 67.5t-43 70.5t-21.5 67.5t-7.5 71.5q0 62 24.5 118t70 98t109.5 66t138 24t138 -24t104 -60.5t62.5 -76t30.5 -78t8 -67.5q0 -49 -15.5 -101.5t-51 -99
t-76.5 -76.5h151v-134h-315v137q30 19 63 56t54.5 92t21.5 108q0 84 -48 135.5t-127 51.5z" />
    <glyph glyph-name="mu" unicode="&#x3bc;" horiz-adv-x="680" 
d="M438 52q-36 -25 -87.5 -44t-98.5 -20v-193h-168v628q0 22 -23 22h-35v103h226v-362q0 -35 14 -51.5t43 -16.5q25 0 58 10.5t59 26.5v278q-3 12 -24 12h-39v103h231v-406q0 -39 37 -39h27v-103q-43 -9 -96 -9q-58 0 -85 17t-39 44z" />
    <glyph glyph-name="pi" unicode="&#x3c0;" horiz-adv-x="783" 
d="M600 427v-250q0 -57 65 -57q30 0 72 11v-125q-33 -7 -78 -12t-75 -5q-48 0 -88 22.5t-51 76.5q-10 55 -10 111v228h-137v-427h-164v427h-126v121h746v-121h-154z" />
    <glyph glyph-name="endash" unicode="&#x2013;" horiz-adv-x="659" 
d="M56 218v127h547v-127h-547z" />
    <glyph glyph-name="emdash" unicode="&#x2014;" horiz-adv-x="874" 
d="M56 218v127h762v-127h-762z" />
    <glyph glyph-name="quoteleft" unicode="&#x2018;" horiz-adv-x="285" 
d="M227 632v-153h-169v175q0 26 10.5 51t36 41.5t69.5 16.5h53v-87h-27q-20 0 -30 -6.5t-10 -22.5v-15h67z" />
    <glyph glyph-name="quoteright" unicode="&#x2019;" horiz-adv-x="275" 
d="M58 609v154h170v-175q0 -46 -28.5 -77.5t-88.5 -31.5h-53v86h28q20 0 30 6.5t10 22.5v15h-68z" />
    <glyph glyph-name="quotesinglbase" unicode="&#x201a;" horiz-adv-x="282" 
d="M56 0v153h170v-175q0 -46 -28.5 -77.5t-88.5 -31.5h-53v87h28q20 0 30 6.5t10 22.5v15h-68z" />
    <glyph glyph-name="quotedblleft" unicode="&#x201c;" horiz-adv-x="513" 
d="M455 632v-153h-169v175q0 26 10.5 51t36 41.5t69.5 16.5h53v-87h-27q-20 0 -30 -6.5t-10 -22.5v-15h67zM227 632v-153h-169v175q0 26 10.5 51t36 41.5t69.5 16.5h53v-87h-27q-20 0 -30 -6.5t-10 -22.5v-15h67z" />
    <glyph glyph-name="quotedblright" unicode="&#x201d;" horiz-adv-x="503" 
d="M58 609v154h170v-175q0 -46 -28.5 -77.5t-88.5 -31.5h-53v86h28q20 0 30 6.5t10 22.5v15h-68zM286 609v154h170v-175q0 -46 -28.5 -77.5t-88.5 -31.5h-53v86h28q20 0 30 6.5t10 22.5v15h-68z" />
    <glyph glyph-name="quotedblbase" unicode="&#x201e;" horiz-adv-x="510" 
d="M56 0v154h170v-175q0 -46 -28.5 -77.5t-88.5 -31.5h-53v86h28q20 0 30 6.5t10 22.5v15h-68zM284 0v154h170v-175q0 -46 -28.5 -77.5t-88.5 -31.5h-53v86h28q20 0 30 6.5t10 22.5v15h-68z" />
    <glyph glyph-name="dagger" unicode="&#x2020;" horiz-adv-x="471" 
d="M319 34h-167v363h-121v134h121v171h167v-171h121v-134h-121v-363z" />
    <glyph glyph-name="daggerdbl" unicode="&#x2021;" horiz-adv-x="502" 
d="M334 17h-167v162h-121v133h121v96h-121v134h121v160h167v-160h122v-134h-122v-96h122v-133h-122v-162z" />
    <glyph glyph-name="bullet" unicode="&#x2022;" horiz-adv-x="402" 
d="M79 211v224h244v-224h-244z" />
    <glyph glyph-name="ellipsis" unicode="&#x2026;" horiz-adv-x="828" 
d="M56 0v154h169v-154h-169zM331 0v154h169v-154h-169zM604 0v154h168v-154h-168z" />
    <glyph glyph-name="perthousand" unicode="&#x2030;" horiz-adv-x="1102" 
d="M733 660l-644 -665l-57 57l645 669zM175 574q0 -42 14.5 -65.5t43.5 -23.5q28 0 43 23.5t15 65.5t-15 65.5t-43 23.5q-29 0 -43.5 -23.5t-14.5 -65.5zM72 574q0 24 7.5 50.5t26 50.5t50.5 40.5t77 16.5q35 0 65.5 -12t52.5 -34t33.5 -51t11.5 -61q0 -70 -45 -113.5
t-118 -43.5t-117 43t-44 114zM485 145q0 -42 15 -65.5t43 -23.5q29 0 43.5 23.5t14.5 65.5t-14.5 65.5t-43.5 23.5q-28 0 -43 -23.5t-15 -65.5zM382 145q0 24 7.5 50.5t26 50.5t50.5 40.5t77 16.5t80.5 -18.5t59 -54.5t23.5 -85q0 -70 -44.5 -113.5t-118.5 -43.5
q-73 0 -117 43t-44 114zM853 145q0 -42 15 -65.5t43 -23.5q29 0 43.5 23.5t14.5 65.5t-14.5 65.5t-43.5 23.5q-28 0 -43 -23.5t-15 -65.5zM750 145q0 24 7.5 50.5t26 50.5t50.5 40.5t77 16.5t80.5 -18.5t59 -54.5t23.5 -85q0 -70 -44.5 -113.5t-118.5 -43.5q-73 0 -117 43
t-44 114z" />
    <glyph glyph-name="guilsinglleft" unicode="&#x2039;" horiz-adv-x="353" 
d="M209 533l107 -66l-140 -197l140 -196l-107 -66l-180 262z" />
    <glyph glyph-name="guilsinglright" unicode="&#x203a;" horiz-adv-x="353" 
d="M144 8l-107 66l140 197l-140 196l107 66l180 -262z" />
    <glyph glyph-name="fraction" unicode="&#x2044;" horiz-adv-x="465" 
d="M106 -50h-124l380 825h123z" />
    <glyph glyph-name="Euro" unicode="&#x20ac;" horiz-adv-x="741" 
d="M101 359l1 37h-68v104h83q31 116 117.5 174t221.5 58q52 0 118 -9.5t114 -23.5v-181h-102q-27 88 -136 88q-48 0 -86.5 -27t-59.5 -79h201v-104h-222l-1 -37l1 -37h222v-104h-200q22 -51 61.5 -77.5t90.5 -26.5q39 0 64 10t40.5 28.5t24.5 48.5h102v-180
q-49 -15 -113 -24t-119 -9q-135 0 -221 57.5t-117 172.5h-84v104h68z" />
    <glyph glyph-name="trademark" unicode="&#x2122;" horiz-adv-x="759" 
d="M214 502q0 -9 10 -9h14v-41h-114v41h13q10 0 10 10v169h-44l-8 -42h-37v90h245v-90h-37l-8 42h-44v-170zM701 493v-41h-110v41h20v158l-73 -199h-51l-74 199v-158h21v-41h-100v41h14q10 0 10 10v166q0 10 -9 10h-15v41h118l68 -185l66 185h115v-41h-15q-9 0 -9 -10v-166
q0 -10 10 -10h14z" />
    <glyph glyph-name="uni2126" unicode="&#x2126;" horiz-adv-x="794" 
d="M397 580q-80 0 -127.5 -51.5t-47.5 -135.5q0 -53 21.5 -108t54 -92t62.5 -56v-137h-315v134h151q-40 30 -69 67.5t-43 70.5t-21.5 67.5t-7.5 71.5q0 62 24.5 118t70 98t109.5 66t138 24t138 -24t104 -60.5t62.5 -76t30.5 -78t8 -67.5q0 -49 -15.5 -101.5t-51 -99
t-76.5 -76.5h151v-134h-315v137q30 19 63 56t54.5 92t21.5 108q0 84 -48 135.5t-127 51.5z" />
    <glyph glyph-name="uni2206" unicode="&#x2206;" horiz-adv-x="753" 
d="M729 0h-705l261 670h183zM380 523l-148 -388h296z" />
    <glyph glyph-name="minus" unicode="&#x2212;" horiz-adv-x="589" 
d="M530 220h-471v122h471v-122z" />
    <glyph glyph-name="uni2219" unicode="&#x2219;" horiz-adv-x="369" 
d="M76 170v194h217v-194h-217z" />
    <glyph glyph-name="radical" unicode="&#x221a;" horiz-adv-x="783" 
d="M283 533q0 -2 59 -225t77 -281l182 798h190l-259 -1002h-223q-10 34 -76.5 265t-81.5 288h-142v157h274z" />
    <glyph glyph-name="infinity" unicode="&#x221e;" horiz-adv-x="1038" 
d="M991 276q0 -22 -5.5 -49t-20 -53t-40.5 -49.5t-67 -38t-88 -14.5q-119 0 -251 119q-132 -119 -250 -119q-35 0 -73 9.5t-75 36.5t-55.5 70t-18.5 88t16.5 83t46 64.5t70.5 41t89 14.5t96 -18.5t87 -46t68 -53.5q47 41 92 69t85.5 38.5t72.5 10.5q35 0 73 -9.5t74.5 -36.5
t55 -69.5t18.5 -87.5zM194 276q0 -34 20 -54t59 -20q20 0 50.5 9t103.5 65q-60 48 -92 61.5t-62 13.5q-39 0 -59 -20.5t-20 -54.5zM847 276q0 34 -21.5 54.5t-60.5 20.5q-19 0 -49.5 -9t-102.5 -66q62 -48 92 -61t60 -13q40 0 61 20t21 54z" />
    <glyph glyph-name="uni2224" unicode="&#x2224;" horiz-adv-x="369" 
d="M76 170v194h217v-194h-217z" />
    <glyph glyph-name="logicaland" unicode="&#x2227;" horiz-adv-x="369" 
d="M76 170v194h217v-194h-217z" />
    <glyph glyph-name="integral" unicode="&#x222b;" horiz-adv-x="433" 
d="M298 -32q0 -67 -22.5 -111t-64.5 -67t-106 -23q-30 0 -54.5 1.5t-51.5 8.5l11 121q38 -7 64 -7q32 0 47 21.5t15 71.5v602q0 68 22 112t64.5 67t106.5 23q30 0 53 -1.5t52 -8.5l-11 -121q-38 7 -63 7q-32 0 -47 -22t-15 -72v-602z" />
    <glyph glyph-name="approxequal" unicode="&#x2248;" horiz-adv-x="584" 
d="M397 298q-38 0 -105.5 26t-103.5 26q-48 0 -98 -30l-49 109q34 21 65.5 33.5t66.5 12.5q28 0 54 -6.5t77.5 -26t78.5 -19.5q9 0 36 5t64 27l41 -110q-63 -47 -127 -47zM414 80q-39 0 -106 26t-104 26q-47 0 -98 -30l-48 109q36 23 66.5 34.5t65.5 11.5q28 0 54 -6.5
t77 -26t78 -19.5q24 0 51 9t49 24l42 -111q-64 -47 -127 -47z" />
    <glyph glyph-name="notequal" unicode="&#x2260;" horiz-adv-x="587" 
d="M195 29h-86l39 73h-90v126h158l55 102h-213v124h280l41 77h87l-41 -77h104v-124h-172l-55 -102h227v-126h-294z" />
    <glyph glyph-name="lessequal" unicode="&#x2264;" horiz-adv-x="549" 
d="M492 0h-445v122h445v-122zM194 379v-16l298 -73v-146l-440 142v170l440 142v-146z" />
    <glyph glyph-name="greaterequal" unicode="&#x2265;" horiz-adv-x="549" 
d="M502 0h-445v122h445v-122zM355 363v16l-298 73v146l440 -142v-170l-440 -142v146z" />
    <glyph glyph-name="dotmath" unicode="&#x22c5;" horiz-adv-x="369" 
d="M76 170v194h217v-194h-217z" />
    <glyph glyph-name="glyph237" horiz-adv-x="0" 
 />
    </font>
</defs>
</svg>
